<?xml version="1.0" encoding="UTF-8"?>
<svg id="Layer_1" xmlns="http://www.w3.org/2000/svg" viewBox="0 0 3896.94 1184.94">
   <defs>
      <style>
        .cls-1, .cls-2 {
            fill:none;
            }
        .cls-2 {
                stroke:#ffffff;
                stroke-linecap:round;
                stroke-linejoin:round;
                stroke-width:48px;
            }
            .cls-3 {
                fill:#231f20;
            }
            .cls-4 {
                fill: #ffffff;
            }
        </style>
   </defs>
   <path class="cls-2" d="m527.23,124.19l405.42,234.07v468.15l-405.42,234.07-405.43-234.07v-468.15l405.43-234.07Zm-170.47,369.73v196.83l170.46,98.42,170.46-98.42v-196.83l-170.46-98.42-170.46,98.42Zm170.47,98.42v468.15M122.92,358.91l404.31,233.43,405.42-234.07"/>
   <path class="cls-4" d="m1179.02,320.58h101.87v214.55h13.9l175.18-214.55h130.43l-225.35,266.26,233.07,273.97h-134.29l-179.04-219.18h-13.9v219.18h-101.87V320.58Z"/>
   <path class="cls-4" d="m1626.59,655.51v-129.65c0-138.92,86.43-216.09,222.26-216.09s222.27,77.18,222.27,216.09v129.65c0,138.92-86.44,216.09-222.27,216.09s-222.26-77.18-222.26-216.09Zm342.66,3.09v-135.83c0-74.09-44.77-121.94-120.4-121.94s-120.39,47.85-120.39,121.94v135.83c0,74.09,44.76,121.94,120.39,121.94s120.4-47.85,120.4-121.94Z"/>
   <path class="cls-4" d="m2160.59,320.58h101.87v540.23h-101.87V320.58Z"/>
   <path class="cls-4" d="m2364.32,320.58h193.72l107.27,470.77h13.89v-470.77h100.33v540.23h-193.72l-107.27-470.77h-13.89v470.77h-100.33V320.58Z"/>
   <path class="cls-4" d="m2869.01,655.51v-129.65c0-138.92,86.43-216.09,222.26-216.09s222.27,77.18,222.27,216.09v129.65c0,138.92-86.44,216.09-222.27,216.09s-222.26-77.18-222.26-216.09Zm342.66,3.09v-135.83c0-74.09-44.77-121.94-120.4-121.94s-120.39,47.85-120.39,121.94v135.83c0,74.09,44.76,121.94,120.39,121.94s120.4-47.85,120.4-121.94Z"/>
   <path class="cls-4" d="m3378.32,684.84v-21.61h100.32v21.61c0,64.83,42.45,97.24,111.91,97.24s104.19-30.87,104.19-74.09-39.35-60.19-108.81-75.63l-17.75-3.86c-111.91-24.7-177.5-62.51-177.5-161.3s74.86-157.44,190.62-157.44,199.88,58.66,199.88,175.96v23.15h-100.32v-23.15c0-61.74-37.82-86.43-99.56-86.43s-90.3,24.7-90.3,64.83,30.1,59.42,94.93,73.32l17.74,3.86c115,24.7,191.4,64.83,191.4,163.61s-79.49,166.7-204.52,166.7-212.23-69.46-212.23-186.77Z"/>
   <path class="cls-1" d="m32.34,674.19v-135.83c0-74.09-44.76-121.93-120.39-121.94v379.7c75.63,0,120.39-47.85,120.39-121.94Z"/>
</svg>