<?xml version="1.0" encoding="UTF-8"?><svg id="Layer_1" xmlns="http://www.w3.org/2000/svg" xmlns:xlink="http://www.w3.org/1999/xlink" viewBox="0 0 5745 1613.99"><defs><style>.cls-1{fill:none;}.cls-2{fill:#5d00b3;}.cls-3{clip-path:url(#clippath-1);}.cls-4{opacity:.5;}.cls-5{clip-path:url(#clippath);}</style><clipPath id="clippath"><rect class="cls-1" y="-1148.39" width="5745" height="2700"/></clipPath><clipPath id="clippath-1"><rect class="cls-1" y="-1148.39" width="5745" height="2992"/></clipPath></defs><g class="cls-4"><g class="cls-5"><g class="cls-3"><path class="cls-2" d="M-20.26-1182.38c965.13.15,1942.35.24,2904.55.24s1922.06-.09,2880.97-.24c-.27,245.16-.27,494.28-.27,735.25v116.03c-3.56,8.71-3.56,17.86,0,26.54V-36.41c-2.49,7.3-2.49,14.96,0,22.26v366.88c-3.17,9.15-3.17,17.77,0,25.79v170.15c-2.49,7.3-2.49,14.96,0,22.26v72.23c-3.86,9.6-3.86,19.75,0,29.35v144.13c0,337.22,0,685.88.27,1028.91-1721.14-.26-3379.86-.26-5369.03-.26H-20.02v-931.26c2.48-7.31,2.48-14.96,0-22.27v-268.86c3.17-9.15,3.17-17.77,0-25.79v-264.13c4.52-9.93,4.52-20.41,0-30.34V-59.48c3.56-8.71,3.56-17.86,0-26.54v-128.18c0-317.33,0-645.4-.24-968.18ZM-26.06-1200.33c-10.8,0-12.18,2.75-12.18,12.78.3,368.55.27,737.08.27,1105.64,3.53,6.13,3.53,12.27,0,18.37v370.65c4.46,7.15,4.46,14.3,0,21.45v272.63c3.59,6.14,2.66,12.27,0,18.37v275.69c2.51,5.11,2.51,10.2,0,15.31v952.69h434.2c1791.04,0,3582.04,0,5373.07.3,11.37,0,13.94-2.58,13.94-14.07-.33-393.62-.3-787.25-.3-1180.88-3.89-7.15-3.89-14.3,0-21.45v-79.65c-2.51-5.11-2.51-10.2,0-15.32v-177.66c-3.59-6.14-2.66-12.27,0-18.37V-17.59c-2.51-5.12-2.51-10.21,0-15.32v-275.69c-3.53-6.13-3.53-12.27,0-18.37,0-286.87-.06-573.75.27-860.62,0-10.11-1.5-12.72-12.21-12.72-962.29.15-1924.42.24-2886.71.24s-1940.26-.09-2910.32-.24l-.03-.03Z"/><path class="cls-2" d="M4761.17,57.33h-.42c-7.96.15-15.02,5.8-14.54,15.91.45,9.64,5.35,15.98,14.6,15.98.42,0,.87,0,1.29-.03,8.37-.51,15.05-4.97,15.38-14.63.42-11.79-7.19-17.23-16.31-17.23Z"/><path class="cls-2" d="M4206.21,837.46c-9.94,0-15.8,5.95-15.92,17.23-.63,10.42,8.14,13.89,15.17,14.6.54.06,1.08.09,1.62.09,7.45,0,13.85-5.29,14.36-14.42.57-9.96-4.19-17.14-14.33-17.47h-.9v-.03Z"/><path class="cls-2" d="M4125.21,446.62c-6.22,2.96-14.42,5.53-14,15.82.38,9.73,5.05,16.01,15.02,16.01h.86c9.37-.33,15.44-5.65,15.32-15.26-.12-9.93-5.92-15.8-17.17-16.57h-.03Z"/><path class="cls-2" d="M5078.94,544.99h-.78c-8.56.27-15.2,6.76-14.69,16.1.45,8.44,4.49,15.5,15.65,15.5h.42c8.88-.72,14.69-5.9,15.11-16.22.45-11.1-7.21-15.41-15.68-15.41l-.03.03Z"/><path class="cls-2" d="M4047.35,154.72c-9.12,0-15.56,5.95-15.71,16.36-.15,10.74,7.01,15.71,15.62,15.71h.72c8.47-.27,14.87-5.92,14.36-15.68.3-10.71-6.16-16.24-14.66-16.39h-.33Z"/><path class="cls-2" d="M4681.37,154.3c-9.61,0-14.78,7.96-15.05,16.3-.27,7.84,4.75,16.31,13.82,16.31h.72c8.74-.42,16.19-5.45,16.81-16.67-1.25-8.52-6.01-15.16-14.96-15.85-.47-.03-.92-.06-1.37-.06l.03-.03Z"/><path class="cls-2" d="M4127.6,544.96h-.78c-8.01.33-15.29,5.12-15.52,14.99-.24,9.25,4.06,15.74,13.64,16.52.57.06,1.11.06,1.65.06,9.12,0,13.49-6.58,16.18-14.09-.89-10.54-5.83-17.51-15.14-17.51l-.03.03Z"/><path class="cls-2" d="M4126.91,57.57h-.89c-12.3.47-14.49,9.09-14.66,18.52-.21,10.05,8.31,10.65,13.04,12.41,13.26-.06,17.92-7.69,17.57-16.6-.33-8.14-5.36-14.36-15.03-14.36l-.03.03Z"/><path class="cls-2" d="M4523.23,448.26h-.42c-9.04.18-15.08,5.42-14.48,15.17.54,9.1,5.65,14.69,16.63,15.44,7.16-1.68,14.4-6.19,14.46-15.14.09-9.55-6.68-15.47-16.16-15.47h-.03Z"/><path class="cls-2" d="M4047.2,837.7c-8.79,0-15.32,6.37-15.86,15.26-.62,10.59,7.81,15.2,16.55,15.8.36,0,.69.03,1.02.03,9.01,0,11.64-8.47,14.27-16.07-1.55-9.07-7.24-15.02-15.98-15.02Z"/><path class="cls-2" d="M271.15,790.01h-.54c-9.1.24-14.48,6.13-14.57,17.38-.27,9.1,7.21,13.49,15.2,13.7h.42c8.59,0,14.63-6.55,14.36-15.73-.27-8.98-5.89-15.35-14.87-15.35Z"/><path class="cls-2" d="M5556.7,643.01h-.09c-8.97.06-16.69,4.55-16.31,16.1.15,9.12,5.6,14.06,13.89,14.33h.84c9.36,0,15.26-5.57,15.56-15.65.26-9.3-5.93-14.81-13.89-14.81v.03Z"/><path class="cls-2" d="M5159.28,642.98c-7.9,0-15.83,3.62-15.89,14.03-.06,10.06,5.66,17.06,15.26,17.09h.09c8.83,0,13.62-7.12,14.99-15.77-.42-9.45-5.95-15.23-13.97-15.35h-.48Z"/><path class="cls-2" d="M5234.83,545.95c-8.64,0-12.36,7.06-12.24,15.29.12,8.8,6.17,14.99,15.03,14.99h.35c9.31-.18,14.16-6.67,14.31-16.01.12-10.14-5.81-14.24-16.58-14.27h-.87Z"/><path class="cls-2" d="M1302.11,789.98c-8.68,0-14.27,6.19-14.84,15.05-.69,10.92,7.81,15.44,16.34,15.94h.86c7.99,0,11.91-6.88,12.75-15.19.06-9.7-5.47-15.44-14.36-15.8h-.75Z"/><path class="cls-2" d="M3968.78,740.4c-8.8,0-16.67,5.44-16.31,15.62.3,8.61,5.51,15.08,14.21,15.14.48,0,.93.03,1.35.03,10.98,0,14.81-7.78,15.02-15.26.21-7.51-5.62-15.35-13.79-15.53h-.51.03Z"/><path class="cls-2" d="M4998.9,642.44c-7.54,2.46-14.45,7-14.42,16.37.03,8.82,5.5,15.17,14,15.17.42,0,.87,0,1.32-.06,8.16-.6,15.41-5.18,14.99-15.5-.42-9.58-6.44-14.06-15.86-15.98h-.03Z"/><path class="cls-2" d="M5237.08,350.36c-8.32,0-13.62,6.2-14.55,14.18-1.1,9.49,5.33,14.63,14.28,16.04h.72c8.61,0,14.18-3.71,14.66-12.86.51-9.34-3.83-16.22-13.2-17.24-.66-.06-1.32-.12-1.94-.12h.03Z"/><path class="cls-2" d="M1144,985.35h-.15c-8.88.06-14.78,5.6-14.57,15.74.21,10.65,7.69,14.51,15.98,14.69h.33c9.63,0,12.51-8.26,14.06-16.66-1.7-8.8-7.81-13.77-15.62-13.77h-.03Z"/><path class="cls-2" d="M4681.28,1032.93c-5.27,2.66-14.25,2.84-13.83,13.4.33,8.38,2.07,17,12.81,17.17h.39c9.63,0,16.1-5.8,16.49-15.55.36-8.77-5.72-13.53-15.86-15.02Z"/><path class="cls-2" d="M4047.62,448.08h-.75c-9.9.36-15.05,7.42-14.9,15.74.15,7.48,5.24,14.12,13.68,14.75,10.56-1.29,16.99-6.97,16.36-16.85-.5-7.8-5.59-13.64-14.36-13.64h-.03Z"/><path class="cls-2" d="M3809.95,838.36c-.48,0-.99,0-1.46.06-8.11.78-15.11,6.28-14.22,16.6.81,9.28,6.56,12.69,14.34,12.69h1.01c11.1,0,14.63-7.39,14.43-15.95-.21-8.41-6.92-13.4-14.04-13.4h-.06Z"/><path class="cls-2" d="M748.73,887.99h-.69c-8.2.36-16.1,3.98-15.8,14.49.24,8.97,4.31,15.29,14.27,15.55h.57c9.75,0,12.84-7.09,15.17-15.02-1.95-7.62-5-15.02-13.49-15.02h-.03Z"/><path class="cls-2" d="M5317.12,1033.17c-9.4,0-14.39,6.88-14.84,14.81-.45,7.6,4.48,15.29,13.46,15.29h.15c8.59-.06,15.83-3.86,15.38-13.86.03-9.75-3.53-15.67-12.99-16.21-.38,0-.77-.03-1.16-.03Z"/><path class="cls-2" d="M425.55,790.9c-7.12,0-10.89,6.41-11.07,13.71-.21,8.5,5.33,15.8,13.88,15.8h.93c8.14-.48,15.14-5.87,14.66-16.04-.42-9.43-6.1-13.23-16.7-13.32-.6-.09-1.17-.12-1.74-.12l.03-.03Z"/><path class="cls-2" d="M983.89,887.9c-7.75,0-13.43,6.23-13.94,13.5-.57,8.05,3.26,16.31,13.52,16.31,8.68,0,15.32-3.74,16.73-14.7-1.2-7.92-6.38-14.27-15.02-15.02-.45-.03-.87-.06-1.32-.06l.03-.03Z"/><path class="cls-2" d="M5716.19,741.09c-11.55,0-17.27,5.71-17.51,14.69-.21,8.35,5.27,14.54,14.09,14.78h.66c8.89,0,14.49-5.03,14.81-14.63.33-9.43-6.1-13.11-11.7-14.84h-.35Z"/><path class="cls-2" d="M3969.23,155.52c-10.57,0-16.01,5.54-16.22,13.62-.21,8.2,3.35,16.45,13.58,16.45h.3c9.28-.15,15.29-5.32,15.02-15.23-.24-8.61-5.05-13.76-12.18-14.81h-.5v-.03Z"/><path class="cls-2" d="M1462.79,693.1c-11.73,0-15.59,7.09-16.25,15.58-.72,9.4,6.59,14.01,14.37,14.31h.71c8.83,0,14.49-6.47,14.34-15.44-.15-8.32-5.45-13.89-12.84-14.45h-.33Z"/><path class="cls-2" d="M349.7,888.08c-8.29,0-14.63,4.79-14.39,13.92.24,9.12,5.63,15.59,15.05,15.74h.33c8.29,0,13.43-5.15,14.57-13.35-1.44-9.6-5.95-16.25-15.41-16.31h-.15Z"/><path class="cls-2" d="M1144.57,1083.01c-9.78,1.56-15.59,6.05-15.26,15.98.3,8.83,4.91,13.62,13.26,13.62h1.04c8.53-.39,14.88-5.93,15.15-13.8.29-8.67-5.96-14.48-14.22-15.77l.03-.03Z"/><path class="cls-2" d="M3966.98,448.47c-7.84,0-13.49,4.91-13.37,13.85.12,9.01,4.22,15.89,13.67,15.89h.33c9.43-.15,13.85-6.79,14.45-15.05.3-11.04-6.79-14.45-14.45-14.69h-.63Z"/><path class="cls-2" d="M1303.37,205.94c-9.01.84-16.07,4.76-15.74,14.51.27,7.99,5.71,14.87,13.76,14.87h.36c8.2-.21,15.2-5.21,15.38-15.17.15-9.22-4.94-13.67-13.73-14.21h-.03Z"/><path class="cls-2" d="M1540.77,206c-7.99,0-13.59,3.59-14.19,12.65-.53,8.38,2.61,16.19,11.43,16.64.45,0,.9.03,1.35.03,7.33,0,14.78-3.11,15.83-12.99,1.08-9.99-3.92-14.96-13.62-16.3h-.83l.03-.03Z"/><path class="cls-2" d="M5157.24,740.88c-8.22,0-12.68,6.61-13.22,13.88-.63,8.32,4.04,15.5,12.81,16.04.41,0,.8.03,1.19.03,8.38,0,13.77-5.57,15.17-14.81-1.07-9.22-6.43-14.96-15.65-15.14h-.3Z"/><path class="cls-2" d="M1461.2,791.2c-9.33,0-14.48,5.9-14.63,14.72-.15,8.65,6.68,12.57,13.02,14.81,9.81-1.37,16.87-5.26,16.43-15.07-.39-8.2-5.15-14.19-14.19-14.46h-.63Z"/><path class="cls-2" d="M4682.83,448.02c-9.06,1.02-15.05,5.69-15.14,14.45-.12,9.31,6.02,15.47,15.02,15.71h.36c7.54,0,13.65-6.01,13.71-13.22.06-8.23-4.79-15.35-13.92-16.94h-.03Z"/><path class="cls-2" d="M507.18,1278.54c-8.05,0-12.48,6.55-12.69,13.79-.27,9.04,5.42,14.76,15.5,16.16,8.26-1.94,13.02-7.48,12.84-16.93-.18-10.06-7.54-12.78-15.23-13.02h-.42Z"/><path class="cls-2" d="M905.05,985.98c-7.72,0-14.63,4.88-13.97,13.41.57,7.15,3.14,15.59,11.25,15.59.42,0,.87,0,1.32-.06,10.95-.51,16.28-4.73,16.31-14.07.06-9.3-5.95-14.39-13.97-14.81h-.96l.03-.06Z"/><path class="cls-2" d="M4999.44,253.78c-9.55,0-14.16,6.07-13.74,15.65.36,8.41,5.06,12.92,13.32,13.04h.36c8.49,0,12.83-5.11,14.42-12.65.45-10.62-4.85-16.01-14.21-16.07h-.15v.03Z"/><path class="cls-2" d="M1382.51,302.61c-9.07,2.24-15.56,6.37-14.96,16.34.54,9.03,7.15,13.67,14.45,13.67h.57c7.78-.24,13.68-5.86,13.41-15.17-.24-9.27-6.38-12.87-13.47-14.84Z"/><path class="cls-2" d="M33.36,10.17c-7.93,2.1-14.66,5.27-15.2,15.41-.57,10.29,7.09,13.26,14.09,14.18.69.09,1.35.15,1.97.15,7.51,0,11.88-6.1,12.36-13.91.51-8.68-4.58-13.88-13.23-15.83Z"/><path class="cls-2" d="M3966.05,545.71c-7.63,2.18-12.98,7.96-13.04,15.83-.06,9.33,7.63,13.73,15.2,13.73.42,0,.81,0,1.23-.03,7.83-.48,12.68-7.21,12.56-15.95-.15-10.14-7.93-11.4-15.95-13.58Z"/><path class="cls-2" d="M190.54,888.17c-7.45,0-12.57,5.45-13.17,13.92-.66,9.3,5.15,15.11,13.02,15.52h.96c8.05,0,13.82-5.71,15.23-16.66-1.82-6.07-7.12-12.12-14.69-12.78-.45-.03-.9-.06-1.32-.06l-.03.06Z"/><path class="cls-2" d="M1540.05,595.71h-.15c-8.59.06-13.49,6.61-13.17,15.32.3,7.96,5.15,13.97,13.05,13.97,9.1,0,14.42-6.01,15.17-16.82-.99-7.66-7.09-12.47-14.9-12.47Z"/><path class="cls-2" d="M1461.17,302.94c-8.04,0-14.57,6.67-14.66,14.75-.09,8.23,6.62,13.25,14.63,15.47,8.08-2.04,14.73-7.06,14.82-15.26.09-8.2-6.56-14.9-14.61-14.99h-.18v.03Z"/><path class="cls-2" d="M4283.17,156.93c-8.08,0-11.97,5.98-12.3,13.4-.3,7.13,3.11,14.04,12.24,14.16h.33c9,0,16.09-4.13,16.24-13.56.09-7.45-3.77-13.91-12.74-13.91-.51,0-1.05,0-1.62.06-.75-.09-1.47-.12-2.15-.12v-.03Z"/><path class="cls-2" d="M4285.5,644.36h-.99c-7.9.39-13.76,5.26-13.76,13.28,0,9.31,6.28,15.14,15.41,15.14s12.21-7.33,14.09-15.29c-1.91-8.02-6.61-13.16-14.75-13.16v.03Z"/><path class="cls-2" d="M347.84,985.86c-7.06.45-11.73,6.61-12.18,14.48-.51,8.83,5.77,13.68,14.27,14.07h.9c8.74,0,12.87-6.5,13.22-14.22.42-8.79-5.62-13.37-16.19-14.36l-.03.03Z"/><path class="cls-2" d="M5238.87,1033.02c-7.81,2.72-14.87,5.5-15.26,15.8-.39,10.32,7.27,13.34,14.21,14.06.45.06.9.06,1.32.06,8.17,0,11.55-8.11,12.42-14.99.99-7.99-6.08-11.67-12.69-14.93Z"/><path class="cls-2" d="M984.1,596.31h-.36c-7.66.11-13.05,4.99-12.09,14-.99,10.05,5.57,14.51,13.46,14.66h.36c8.41,0,13.14-6.43,13.11-15.08,0-9.4-6.73-13.58-14.48-13.58Z"/><path class="cls-2" d="M4047.56,546.79h-.45c-7.87.18-14.39,4.61-13.52,14.69.36,8.62,5.26,13.28,12.92,13.28.45,0,.87,0,1.32-.06,8.5-.57,12.93-6.49,13.02-15.23.09-9.12-6.47-12.68-13.29-12.68Z"/><path class="cls-2" d="M1144.48,10.65c-6.97,2.43-14.78,5.06-14.84,14.24-.03,8.47,5.84,14.72,13.88,14.9h.36c8.08,0,13.35-6.13,13.8-14.72.48-8.67-5.72-12.08-13.17-14.45l-.03.03Z"/><path class="cls-2" d="M905.28,499.07h-.78c-8.38.29-12.75,5.77-12.87,13.73-.15,9.3,6.76,13.85,14.51,14.15h.6c8.32,0,12.33-6.52,13.32-15.32-1.89-7.69-6.58-12.56-14.78-12.56Z"/><path class="cls-2" d="M1063.72,693.78c-8.29,0-13.34,6.38-12.89,14.78.39,7.4,4.66,13.02,13.16,13.38h1.14c8.5,0,12.87-4.34,12.6-14.24.98-9.19-5.48-13.65-13.35-13.95h-.63l-.03.03Z"/><path class="cls-2" d="M4523.59,546.79c-.45,0-.93,0-1.38.06-7.93.51-12.56,6.7-12.26,14.75.32,9.3,7.86,11.97,14.9,14.36,9.12-2.48,12.35-8.83,11.91-17.29-.45-8.56-6.47-11.88-13.17-11.88Z"/><path class="cls-2" d="M4840.67,840.24c-7.27,0-12.93,2.7-13.05,9.97-1.76,11.43,3.98,15.85,11.11,16.96.89.15,1.76.21,2.57.21,7.24,0,12.18-5.06,13.4-12.81,1.35-8.58-3.53-13.67-11.82-14.24-.74-.06-1.49-.09-2.24-.09h.03Z"/><path class="cls-2" d="M4602.79,448.86c-8.14,0-14,6.34-13.91,14.81.09,8.98,7.36,13.64,14.99,13.64h.33c7.69-.15,12.71-5.71,11.46-14.39.81-9.63-5.63-14-12.75-14.06h-.12Z"/><path class="cls-2" d="M4760.09,351.83c-8.47,0-11.73,6.58-12.03,13.91-.39,9.43,6.98,12.45,15.05,14.84,6.17-2.99,13.02-6.52,12.63-14.66-.42-8.56-6.43-13.76-14.99-14.06h-.63l-.03-.03Z"/><path class="cls-2" d="M4206.75,59.3c-.33,0-.66,0-1.02.03-8.44.51-14.57,5.63-13.68,14.6.66,6.55,3.95,12.39,13.5,12.39.96,0,1.97-.06,3.08-.18,4.28-1.02,11.82-2.6,10.86-12.03-.78-7.57-3.92-14.78-12.74-14.78v-.03Z"/><path class="cls-2" d="M5237.43,59.3c-8.7,0-13.67,6.4-13.19,14.3.36,6.05,3.11,13.05,11.01,13.05.66,0,1.38-.06,2.12-.15.54.03,1.05.06,1.53.06,8.95,0,12.6-6.37,12.81-13.91.21-7.99-5.75-13.02-13.62-13.29h-.66v-.06Z"/><path class="cls-2" d="M191.62,498.98c-7.45,0-13.52,4.57-13.97,12.71-.51,8.65,4.52,15.14,13.1,15.23h.24c6.97,0,13.4-3.59,13.55-12.63.09-8.85-3.71-15.23-12.75-15.31h-.18Z"/><path class="cls-2" d="M350.15,10.74c-7.45,1.44-13.46,5.99-14,13.56-.6,8.52,5.45,14.66,13.7,15.1h.75c7.39,0,12.9-5.89,13.46-13.13.66-8.56-5.57-13.46-13.88-15.56l-.03.03Z"/><path class="cls-2" d="M3887.42,546.07c-9.25,1.52-12.63,8.89-12.54,16.37.09,7.48,5.96,11.96,13.35,11.96h.9c8.07-.39,13.67-5.86,12.86-13.64-.78-7.51-5.38-14.12-14.57-14.66v-.03Z"/><path class="cls-2" d="M5712.5,157.26c-.8,0-1.64.03-2.54.09-4.61.54-10.38,5.92-9.78,14.33.51,6.76,5.02,12.66,12.65,12.66.57,0,1.14-.03,1.74-.09,7.81-.87,13.67-5.81,13.07-14.01-.5-6.79-3.71-12.98-15.14-12.98Z"/><path class="cls-2" d="M1064.23,402.15c-8.11,0-13.58,4.1-13.43,12.57.15,8.74,5.62,14.27,14.27,14.54h.54c8.17,0,11.73-5.71,12.24-14.87-1.05-6.88-4.79-12.15-13.38-12.24h-.24Z"/><path class="cls-2" d="M5397.85,58.91c-7.18,1.92-15.02,3.26-15.02,13.53,0,8.4,4.19,13.43,12.59,13.94.45,0,.9.03,1.32.03,7.51,0,12.81-3.95,12.84-12.06,0-7.24-2.73-13.97-11.76-15.47l.03.03Z"/><path class="cls-2" d="M4125.84,157.08c-9.4,0-12.87,6.82-12.63,14.6.24,7.87,6.22,12.57,14.03,12.57h.18c8.47-.09,12.03-5.81,12.36-14.16-.84-7.98-5-12.74-13.34-12.98h-.6v-.03Z"/><path class="cls-2" d="M1460.94,206.72c-8.26,0-12.99,6.19-13.02,14.57,0,7.66,4.97,11.82,12.48,12.15h.98c8.44,0,12.78-4.73,13.35-10.72.51-12.05-6.01-15.73-13.08-16h-.71Z"/><path class="cls-2" d="M985.48,206.72h-.45c-7,.18-13.65,3.77-13.38,13.04.24,8.32,4.4,13.2,12.72,13.71.45,0,.87.03,1.29.03,7.45,0,11.79-4.19,13.2-11.76-.93-8.59-5.03-15.02-13.41-15.02h.03Z"/><path class="cls-2" d="M429.41,1278.96c-8.47,1.35-13.52,6.22-13.49,14.24,0,8.02,5.51,13.14,13.26,13.59h.96c8.74,0,12.96-7.01,13.23-14.58.3-8.43-7.63-10.89-13.94-13.28v.03Z"/><path class="cls-2" d="M4046.96,644.69c-7.63,0-12.26,5.62-12.95,13.25-.81,8.68,4.61,12.75,12.41,13.73,8.44-.33,14.19-3.95,14.19-12.62,0-8.05-4.79-13.91-12.78-14.33h-.84l-.03-.03Z"/><path class="cls-2" d="M985.6,791.74h-.27c-8.71.15-13.73,6.5-13.35,15.26.33,7.69,5.6,11.58,13.17,11.58h.06c8.38,0,12.87-4.58,13.68-12.57-1.29-8.19-5.42-14.27-13.26-14.27h-.03Z"/><path class="cls-2" d="M907.14,402.03c-8.23.18-13.26,3.95-14.27,12.42-1.11,9.19,4.82,13.47,12.06,14.33.54.06,1.08.09,1.59.09,7.18,0,12.06-6.01,12.69-12.59.69-7.12-3.17-13.74-12.06-14.28v.03Z"/><path class="cls-2" d="M5317.15,840.03c-8.05.75-12.75,4.91-13.17,13.41-.42,8.56,4.82,12.98,11.49,12.98.48,0,.99,0,1.5-.06,6.73-.62,13.76-4.99,13.91-13.55.12-8.62-5.5-12.33-13.73-12.78Z"/><path class="cls-2" d="M1701.09,499.99c-.69,0-1.41.03-2.16.12-8.28.93-13.25,5.57-13.01,13.56.24,8.16,6.49,11.78,13.79,13.25,7.21-2.42,13.47-5.86,12.72-14.54-.63-7.15-3.62-12.36-11.31-12.36l-.03-.03Z"/><path class="cls-2" d="M34.02,1085.14c-.6,0-1.26.03-1.91.12-8.47.96-12.45,5.92-12.39,14.36.06,7.93,5.3,11.88,11.34,11.88.48,0,.99,0,1.47-.09,6.82-.69,13.35-4.88,14.09-13.38-2.24-6.85-4.82-12.92-12.6-12.92v.03Z"/><path class="cls-2" d="M4445.16,840.06c-.62,0-1.28.03-1.97.12-7.6.9-12.42,5.03-12.09,12.87.36,7.81,4.97,13.88,12.54,13.88h.69c7.48-.36,11.96-6.46,13.49-13.7-2.33-7.12-4.94-13.17-12.69-13.17h.03Z"/><path class="cls-2" d="M5396.59,938.23c-8.2,0-13.58,4.13-13.5,12.69.06,7.09,3.98,13.49,11.17,13.49h.47c7.78-.3,14.1-5.09,15.35-14.12-1.31-7.63-5.5-12-13.22-12.06h-.27Z"/><path class="cls-2" d="M4284.09,840.15c-7.06,1.89-13.19,4.58-12.26,13.98.77,7.86,5.26,12.74,12.11,12.74.42,0,.84,0,1.26-.06,7.09-.6,14.09-5.26,13.2-13.64-.78-7.27-5.69-12.81-14.34-13.02h.03Z"/><path class="cls-2" d="M1620.84,304.43h-.72c-7.45.33-13.67,5.33-13.58,13.11.09,7.24,4.33,13.61,12.86,13.76h.39c8.2,0,11.97-5.2,12.75-12.92-.39-8.11-3.86-13.98-11.76-13.98l.06.03Z"/><path class="cls-2" d="M4761.47,644.36c-9.73,0-13.32,7.75-13.2,15.43.09,7.01,6.35,10.78,13.23,11.94,8.11-1.79,13.37-6.97,12.8-14.72-.47-6.67-5.05-12.65-12.86-12.65h.03Z"/><path class="cls-2" d="M5318.25,353.09h-.95c-8.32.44-13.35,4.72-13.11,13.28.24,8.68,6.58,11.76,14.93,13.31,5.63-2.12,11.64-6.16,11.37-13.22-.27-6.88-3.68-13.4-12.24-13.4v.03Z"/><path class="cls-2" d="M5634.44,840.39h-.33c-8.71.18-12.03,7-12.63,14.33-.66,7.93,5.81,10.57,11.61,12.9,7.57-2.36,14.9-5.63,14.57-13.76-.27-7.1-4.9-13.5-13.19-13.5l-.03.03Z"/><path class="cls-2" d="M510.23,1085.08c-.57,0-1.14.03-1.77.09-7.87.96-13.17,5.03-12.48,13.55.54,6.79,4.28,12.81,11.25,12.81h.81c8.14-.54,14.18-6.49,13.61-14.99-.39-6.2-4.13-11.46-11.43-11.46Z"/><path class="cls-2" d="M4286.76,59.66h-.6c-7.33.33-14.33,5.03-14.12,13.04.21,7.1,4.87,13.53,13.22,13.53h.27c7.3-.12,11.07-5.39,13.32-10.65-1.89-8.29-3.77-15.95-12.09-15.95v.03Z"/><path class="cls-2" d="M1301.99,987.51c-8.05,0-11.79,5.53-12.03,13.67-.27,8.53,5.72,10.8,11.94,12.78,7-1.65,13.26-5.09,13.32-12.45.06-7.48-4.61-13.79-12.78-14h-.48.03Z"/><path class="cls-2" d="M4205.7,353.03c-8.53,0-12.54,6.28-13.02,12.11-.6,7.42,4.67,13.59,12.75,13.59h.18c7.99-.09,13.02-5.24,12.66-13.68-.33-7.75-5.39-11.4-12.18-12.02h-.39Z"/><path class="cls-2" d="M5475.19,938.2h-.74c-8.23.27-10.78,5.39-11.25,12.93-.57,8.88,5.62,12.41,11.84,12.5h.21c7.19,0,12.54-5.11,13.65-13.4-1.38-7.93-5.84-12.09-13.68-12.09l-.03.06Z"/><path class="cls-2" d="M826.26,1085.14c-7.54,1.13-11.61,5.29-12.27,13.04-.87,10.06,6.19,12.39,13.32,12.66h.51c6.43,0,11.52-4.88,11.49-11.37-.03-7.66-4.94-12.96-13.02-14.33h-.03Z"/><path class="cls-2" d="M111.4,110.02c-6.19,0-11.34,4.48-12.12,10.86-.78,6.61,2.33,13.58,10.32,14.33.57.06,1.11.09,1.64.09,7.06,0,11.73-4.55,14.09-12.27,0-7.63-5.48-11.88-11.97-12.86-.66-.09-1.35-.15-1.97-.15Z"/><path class="cls-2" d="M4842.35,1036.19h-.72c-8.26.36-13.71,4.43-13.29,12.98.36,7.69,5.84,11.22,13.29,11.49h.63c7.99,0,11.73-5.65,11.73-12.26s-3.74-12.21-11.64-12.21Z"/><path class="cls-2" d="M5001.02,840.36h-.69c-7.21.36-13.43,4.1-13.52,11.7-.06,6.58,3.71,14.12,11.01,14.24h.27c6.91,0,12.87-4.75,14.6-12.83-2.3-6.02-3.59-13.11-11.67-13.11Z"/><path class="cls-2" d="M1701.27,598.1c-.48,0-.99,0-1.5.09-8.35.9-12.86,5.6-12.48,13.97.36,7.51,5.27,11.22,11.97,11.22h.93c7.51-.36,10.62-6.22,12.63-12.56-2.84-5.66-3.83-12.72-11.52-12.72h-.03Z"/><path class="cls-2" d="M587.54,1183.16c-7.63,0-11.46,5.17-11.85,11.57-.39,6.71,3.2,12.39,11.46,12.96.42,0,.84.03,1.23.03,8.17,0,10.71-6.01,13.23-13.61-1.62-6.26-5.36-10.51-13.05-10.95-.36,0-.72-.03-1.05-.03l.03.03Z"/><path class="cls-2" d="M4283.85,548.01c-7.03,0-11.1,4.58-10.65,12.42.45,7.57,4.28,12.72,11.82,12.78h.15c8.35,0,11.88-5.75,12.18-13.74.54-9.3-6.37-11.16-12.75-11.46h-.75Z"/><path class="cls-2" d="M4206.18,255.37c-8.11,0-12.57,6.37-12.99,13.4-.45,7.54,5.81,11.04,17,12.12,4.34,0,7.45-5.72,8.02-12.57.62-7.66-3.95-12.68-11.49-12.95h-.57.03Z"/><path class="cls-2" d="M1222.01,109.96c-7.72,0-10.59,6.52-10.56,13.34,0,7.27,4.46,11.94,11.4,11.94.39,0,.78,0,1.19-.03,7.63-.57,11.11-6.02,11.4-16.4.54-6.55-6.4-8.56-12.86-8.82h-.6l.03-.03Z"/><path class="cls-2" d="M668.9,1183.49c-.45,0-.9,0-1.38.05-6.64.57-13.17,3.48-12.21,12.15.69,6.44,3.02,12.06,10.38,12.06.63,0,1.32-.03,2.04-.12,7.27-.75,12.57-4.43,12.45-12.27-.12-7.21-4.46-11.87-11.28-11.87Z"/><path class="cls-2" d="M4762.22,840.3c-6.05,2.4-13.32,3.74-12.78,12.39.39,6.64,2.93,13.02,10.5,13.02h.87c6.49-.39,12.96-2.52,12.6-11.64-.3-7.57-3.71-12.18-11.16-13.74l-.03-.03Z"/><path class="cls-2" d="M1301.75,500.41c-6.73,0-11.1,4.43-11.49,11.22-.42,7.48,4.43,13.29,11.01,13.85.54.06,1.08.06,1.62.06,5.62,0,11.7-2.66,11.37-11.28-.51-7.77-3.68-13.76-12.27-13.88h-.21l-.03.03Z"/><path class="cls-2" d="M746.34,207.88h-.66c-6.61.24-10.71,4.61-10.56,12.24.15,8.62,5.93,10.83,12.39,12.72,5.89-2.19,12.03-3.92,11.7-11.91-.36-8.35-5.3-13.05-12.84-13.05h-.03Z"/><path class="cls-2" d="M1461.8,1085.77c-.42,0-.87,0-1.31.06-7.01.62-11.73,4.75-11.28,13.31.41,8.26,5.38,10.05,11.93,10.44.36,0,.69.03,1.02.03,7.69,0,10.09-5.77,11.94-12.14-1.53-7.07-5.71-11.73-12.3-11.73v.03Z"/><path class="cls-2" d="M5634.65,1036.46c-.33,0-.66,0-1.02.03-6.82.45-11.25,4.99-11.04,12.03.24,7.36,4.64,11.87,11.73,11.87.33,0,.69,0,1.02-.03,6.31-.36,11.52-3.47,12.65-10.92-2.36-6.58-5.41-12.95-13.31-12.95l-.03-.03Z"/><path class="cls-2" d="M509.84,111.09c-7.51,0-13.4,3.2-13.52,10.98-.12,7.33,5.18,12.45,12.45,12.87h.93c7.15,0,10.65-5.27,11.52-13.26-.96-5.77-3.68-10.62-11.34-10.62l-.03.03Z"/><path class="cls-2" d="M5475.4,255.67c-7.57,0-11.61,6.58-11.94,13.13-.35,6.61,4.85,10.83,11.88,12.24,6.23-1.92,12.9-4.76,12.93-12.51,0-7.33-5.27-12.72-12.54-12.89h-.33v.03Z"/><path class="cls-2" d="M34.05,1281.17c-.69,0-1.44.06-2.21.15-6.76.84-12.15,4.34-11.46,11.46.6,6.11,3.29,12.72,10.68,12.72.48,0,.99,0,1.53-.09,6.97-.78,11.37-5.42,12.39-10.14-1.05-9.43-4.1-14.1-10.95-14.1h.03Z"/><path class="cls-2" d="M5715.29,60.86h-.72c-6.49.36-12.93,4.57-12.87,12.23.06,7.24,5.27,11.49,13.08,13.26,5.56-2.07,11.7-4.79,11.46-12.57-.21-6.88-3.86-12.92-10.92-12.92h-.03Z"/><path class="cls-2" d="M190.72,1085.38c-6.04,1.61-12.09,3.95-11.52,11.46.51,6.52,2.39,12.89,11.4,12.89,0,0,0,0,.03,0,8.32,0,12.33-5.14,12.69-11.91.42-7.63-5.59-11.07-12.63-12.41l.03-.03Z"/><path class="cls-2" d="M1699.26,696.48c-7.54,0-12.12,4.81-11.85,12.5.27,6.86,4.73,11.31,11.52,11.31h.33c7.81-.15,11.43-5.38,11.97-11.43.27-9.72-5.29-12.26-11.7-12.38h-.27Z"/><path class="cls-2" d="M4444.95,646h-.33c-6.7.18-13.1,4.4-13.19,11.97-.09,6.79,4.28,12.51,11.22,12.51.33,0,.66,0,.99-.03,6.73-.51,11.79-5.21,12.83-12.78-1.31-6.52-5.2-11.67-11.55-11.67h.03Z"/><path class="cls-2" d="M4840.22,938.44h-.66c-8.19.33-10.98,7.27-10.86,13.76.12,6.77,5.57,10.15,12.45,10.39,6.07-1.47,12.75-3.74,12.12-10.93-.6-7.06-4.97-13.22-13.05-13.22Z"/><path class="cls-2" d="M4285.5,1036.43c-.45,0-.93,0-1.41.06-6.46.57-11.76,3.53-10.86,11.67.81,7.39,4.7,12.14,11.91,12.14h.84c6.91-.35,10.56-5.14,11.37-12.26-1.32-6.85-4.94-11.61-11.85-11.61Z"/><path class="cls-2" d="M1462.07,890.63c-.69,0-1.4.06-2.18.21-7.06,1.22-11.46,5.59-10.59,13.34.71,6.37,4.9,11.28,10.68,11.28h.75c7.42-.54,11.94-6.43,13.46-14.45-2.81-5-5.77-10.32-12.09-10.32l-.03-.06Z"/><path class="cls-2" d="M4205.73,938.44c-8.89,0-7.96,8.11-9.25,13.97-1.49,6.91,2.49,10.12,8.71,11.85,5.27-2.81,13.08-2.84,13.29-11.7.18-8.26-3.68-13.73-12.09-14.09h-.66v-.03Z"/><path class="cls-2" d="M1063.3,794.14c-6.61,0-10.8,4-10.95,10.26-.18,6.97,4.43,12.15,10.92,13.88,8.92-.45,12.36-6.25,13.05-13.07.75-7.54-4.7-10.39-11.49-10.98-.54-.06-1.05-.06-1.56-.06l.03-.03Z"/><path class="cls-2" d="M826.5,1281.23c-7,.72-11.7,4.37-12.21,11.22-.57,7.69,3.98,12.54,11.52,12.93h.75c6.52,0,10.74-4.4,11.31-10.92.66-7.78-4.22-11.82-11.34-13.23h-.03Z"/><path class="cls-2" d="M666.9,208h-.66c-6.73.3-10.41,5.24-9.93,12.72.54,8.05,5.74,11.61,12.09,11.61h.99c6.55-.36,9.99-6.05,10.89-13.11-2.04-6.61-6.73-11.25-13.38-11.25v.03Z"/><path class="cls-2" d="M5158.35,1036.46c-7.18,0-11.61,4.58-11.73,11.97-.12,6.97,4.31,11.49,11.1,11.87h.9c7.12,0,10.74-4.84,11.91-11.84-.96-6.95-4.55-11.7-11.4-12h-.78Z"/><path class="cls-2" d="M3809.32,646.27h-.71c-7.75.39-11.26,5.99-11.2,13.41.06,7.81,6.35,9.3,11.76,11.16,7.07-1.44,11.67-5.9,11.58-12.33-.09-6.7-4.16-12.24-11.43-12.24Z"/><path class="cls-2" d="M4127.06,743.36h-.09c-7.06.06-11.58,5.42-12.38,12.99-.93,8.46,6.04,9.24,10.89,11.73,7.96-1.05,12.8-6.2,13.01-13.02.21-6.25-5.23-11.7-11.43-11.7Z"/><path class="cls-2" d="M4920.02,743.33c-.47,0-.98.03-1.49.09-5.45.69-11.64,5.63-10.33,12.63,1.02,5.29,3.45,11.46,10.48,11.46h.78c7.98-.54,13.16-4.76,12.59-12.48-.51-6.88-5.83-11.67-12.03-11.67v-.03Z"/><path class="cls-2" d="M4842.86,158.93c-9.49.36-14.73,4.43-14.28,12.06.45,7.33,6.56,11.61,13.17,11.61h.3c6.52-.12,10.44-4.91,10.14-12.39-.27-7.66-4.79-10.41-9.36-11.25l.03-.03Z"/><path class="cls-2" d="M4442.32,451.31c-7.06,0-10.02,5.87-10.29,11.55-.36,7.42,5.2,12.06,12.09,12.06h.57c6.79-.24,10.05-5.77,10.41-12.63.09-8.07-5.3-10.44-11.7-10.92-.36,0-.69-.03-1.05-.03l-.03-.03Z"/><path class="cls-2" d="M985.96,13.61c-.6,0-1.26.03-1.92.12-6.16.81-11.52,4.25-10.38,12.24.96,6.64,4.76,10.98,11.04,10.98.33,0,.69,0,1.05-.03,6.34-.45,11.31-3.98,11.43-9.84-1.11-8.59-4.7-13.47-11.22-13.47Z"/><path class="cls-2" d="M5554.88,255.79c-6.02,2.24-11.91,4.66-11.43,13.28.41,7.99,5.92,10.08,11.99,10.08h.36c6.74-.09,11.73-4.25,11.19-11.43-.47-6.55-4.87-10.83-12.11-11.93Z"/><path class="cls-2" d="M349.79,1281.5c-6.76,0-10.95,4.46-11.52,11.61-.63,7.84,5.54,11.1,11.46,11.34h.66c5.77,0,10.95-3.32,11.76-10.71-.54-6.79-4.16-11.58-10.92-12.18-.51-.03-.99-.06-1.44-.06Z"/><path class="cls-2" d="M906.99,306.02c-.42,0-.87,0-1.32.06-5.89.57-12.48,4.19-11.7,11.37.69,6.4,5.06,12.24,12.09,12.24.3,0,.6,0,.9-.03,6.58-.45,10.77-5.06,10.05-11.37-.18-8.11-4.13-12.27-10.05-12.27h.03Z"/><path class="cls-2" d="M5554.64,938.77c-.48,0-.99,0-1.5.09-5.86.63-9.72,5.33-9.42,11.61.35,7.45,4.75,11.88,12.08,11.88h.42c7.54-.18,9.01-6.56,10.71-12.15-1.88-6.85-5.89-11.43-12.29-11.43Z"/><path class="cls-2" d="M4760.18,743.93h-.48c-6.43.15-9.9,5.6-9.96,11.34-.09,7.87,6.4,10.59,12.95,12.87,4.67-3.27,11.52-4.64,10.39-12.75-1.08-7.6-5.99-11.49-12.9-11.49v.03Z"/><path class="cls-2" d="M3968.6,353.26c-7.03,1.47-12.99,4.88-12.6,12.48.3,5.72,3.29,11.55,10.41,11.55h.72c6.82-.36,11.1-4.52,11.58-11.34.48-7-3.86-10.86-10.14-12.69h.03Z"/><path class="cls-2" d="M33.48,1183.78c-.51,0-1.05.03-1.59.12-6.37.81-11.58,5.18-11.1,12.15.48,6.64,5.66,11.01,12.03,11.01h.27c6.88-.12,10.23-5.38,10.77-12.47-1.47-5.78-4.25-10.81-10.38-10.81Z"/><path class="cls-2" d="M1301.66,1086.36c-6.28,0-10.86,4.91-10.5,11.37.3,5.84,3.26,11.7,10.47,11.7h.72c6.97-.36,10.56-4.81,11.7-10.95.09-8.5-5.6-11.67-11.55-12.09h-.84v-.03Z"/><path class="cls-2" d="M747.75,501.25h-.6c-5.98.3-12,3.35-11.76,11.13.21,7,4.4,11.25,11.22,11.91.42.03.84.06,1.23.06,6.79,0,8.65-5.96,10.92-11.94-1.47-5.75-4.52-11.19-11.04-11.19l.03.03Z"/><path class="cls-2" d="M33.63,404.1c-6.58,0-13.05,3.71-12.69,11.34.27,5.71,3.86,11.07,11.01,11.07.33,0,.66,0,.99-.03h.87c6.97,0,10.08-3.74,10.11-11.04.03-6.91-3.92-11.19-9.75-11.34h-.54Z"/><path class="cls-2" d="M1303.43,598.73h-.3c-6.44.15-11.7,4.4-12.06,11.07-.39,6.67,4.31,11.61,10.71,11.61h.27c5.93-.12,11.49-3.26,12.12-12.42-1.35-4.61-3.86-10.26-10.74-10.26Z"/><path class="cls-2" d="M985.18,307.13h-.63c-7.42.18-11.31,4.67-10.98,11.34.3,6.67,5.33,10.41,11.88,11.55,6.37-1.62,10.65-4.82,10.41-12.39-.24-7.48-3.86-10.5-10.71-10.5h.03Z"/><path class="cls-2" d="M112.63,988.76c-6.46.78-11.43,4.37-12.09,11.02-.69,6.76,3.02,11.36,10.38,11.78.48,0,.93.03,1.41.03,6.16,0,10.08-2.57,10.44-9.99.36-7.42-3.41-11.07-10.11-12.87l-.03.03Z"/><path class="cls-2" d="M747.3,1183.93c-5.53,1.83-11.67,3.33-11.97,11.13-.3,7.9,5.57,10.84,11.52,11.46.39.03.75.06,1.11.06,5.57,0,9.64-4.51,10.23-10.02.78-7-4.16-10.83-10.89-12.6v-.03Z"/><path class="cls-2" d="M5714.3,939.4c-.36,0-.72,0-1.08.06-5.47.51-10.26,4.84-10.53,12.2-.33,8.83,6.49,9.94,11.73,10.24h.69c6.34,0,9.42-5.36,10.14-11.4-.54-7.51-5.65-11.1-10.98-11.1h.03Z"/><path class="cls-2" d="M5317.78,256.95h-.69c-6.59.33-11.31,5.27-11.28,11.85,0,5.63,3.35,10.47,11.07,10.62,6.46-1.05,11.13-4.97,11.07-12.68-.06-6.53-4.7-9.79-10.14-9.79h-.03Z"/><path class="cls-2" d="M4363.81,159.02c-6.08,0-10.39,5-10.57,10.21-.21,5.89,3.03,12.02,10.63,12.02,6.91,0,10.71-4.21,12-10.29-.93-7.66-5.15-11.76-11.82-11.91h-.27l.03-.03Z"/><path class="cls-2" d="M4762.96,451.61h-.71c-6.47.42-11.67,4.49-12,11.22-.33,6.82,4.61,10.56,11.43,12.03,5.92-1.79,11.16-5.36,10.5-12.24-.48-5.02-2.78-11.04-9.22-11.04v.03Z"/><path class="cls-2" d="M4443.7,549.69c-6.53,0-10.83,4.82-10.83,11.43s4.54,10.47,11.31,10.98h.77c6.62,0,9.49-4.31,9.82-10.11.39-6.94-3.68-12-10.47-12.3h-.6Z"/><path class="cls-2" d="M1699.56,892.42c-.48,0-.96,0-1.46.06-6.05.57-9.67,4.61-10.78,10.89,1.95,5.87,5.45,10.03,11.46,10.03.51,0,1.02,0,1.53-.09,5.98-.66,10.83-4.55,10.32-10.8-.51-6.29-4.96-10.12-11.13-10.12l.06.03Z"/><path class="cls-2" d="M4523.35,257.01h-.78c-5.8.3-9.84,4.16-9.9,11.07-.06,7.63,4.37,10.77,10.44,10.77h.87c5.8-.27,10.44-3.5,9.87-9.81-.12-8.08-4.31-12.03-10.5-12.03Z"/><path class="cls-2" d="M4999.41,1036.37c-6.08,1.37-10.06,4.96-10.51,11.25-.41,6.25,2.85,11.76,8.89,11.76h.18c5.69-.09,12.87-3.15,12.78-10.3-.09-6.13-4.64-11.04-11.34-12.68v-.03Z"/><path class="cls-2" d="M5317.39,451.76c-7.22,0-10.87,6.35-11.4,12.6-.42,5.03,4.9,9.84,9.69,9.99h.51c5.83,0,11.19-3.26,11.94-10.71-.39-6.28-3.62-11.31-9.61-11.82-.39-.03-.74-.06-1.1-.06h-.03Z"/><path class="cls-2" d="M4207.01,647.35h-.35c-6.89.18-11.79,4.01-11.7,11.07.06,5.8,3.59,11.34,9.84,11.34h.09c6.58-.06,10.68-4.91,12.09-11.88-1.29-5.35-3.29-10.56-10-10.56l.03.03Z"/><path class="cls-2" d="M191.41,111.66c-6.91,0-10.56,4.94-10.89,11.82-.3,6.31,4.25,9.6,9.34,10.02.39.03.81.06,1.2.06,5.8,0,10.17-3.47,11.76-8.88-.81-7.84-4.25-12.93-11.22-13.02h-.18Z"/><path class="cls-2" d="M1301.6,13.73c-5.08,1.74-10.29,4.13-9.84,10.86.42,6.17,3.14,11.85,10.08,11.85h.6c5.95-.27,10.41-4.7,10.62-10.65.27-6.82-4.58-10.56-11.46-12.06Z"/><path class="cls-2" d="M4127,354.34c-5.71,0-11.16,3.35-11.22,10.71-.06,6.05,3,11.16,8.98,11.16h.72c4.85-.33,11.82-1.07,11.22-8.52,0-7.18-2.63-12.9-8.71-13.29-.33,0-.66-.03-.99-.03v-.03Z"/><path class="cls-2" d="M190.63,1281.44c-6.31,2.01-10.56,5.93-10.05,12.99.42,6.19,4.67,9.36,9.93,9.36.45,0,.9,0,1.38-.06,5.83-.57,10.29-4.37,9.45-11.25-.75-6.13-4.55-9.72-10.68-11.01l-.03-.03Z"/><path class="cls-2" d="M904.96,1184.41c-6.07,0-9.4,5.84-9.96,11.13-.66,6.26,4.73,10.68,10.11,10.92h.48c6.46,0,9.69-5.68,11.13-11.96-.48-7.1-5.98-9.82-11.28-10.09h-.48Z"/><path class="cls-2" d="M5476.66,62.32c-6.43,0-10.98,3.83-11.37,10.3-.33,5.68,2.54,10.68,12.21,10.86h.21c3.74,0,7.72-2.52,8.02-9.4.27-6.07-.96-11.37-8.2-11.76h-.87Z"/><path class="cls-2" d="M5477.38,160.31c-.36,0-.75,0-1.14.06-5.5.45-11.43,1.95-11.28,9.19.12,6.91,4.49,11.1,11.22,11.64.39,0,.75.03,1.11.03,6.13,0,8.5-4.28,8.5-10.45s-2.25-10.47-8.41-10.47Z"/><path class="cls-2" d="M1145.2,697.23c-.69,0-1.44.06-2.21.2-5.15.96-11.37,3.51-10.06,10.93,1.02,5.65,4.07,10.35,10.98,10.62,4.79-2.34,11.16-3.56,10.6-10.74-.48-5.93-3.38-11.01-9.31-11.01Z"/><path class="cls-2" d="M3809.41,62.26c-6.04,0-11.07,3.23-10.98,9.46.06,5.41,3.06,10.92,9.91,11.55.45.03.87.06,1.25.06,6.05,0,8.59-4.43,10.24-10.09-1.05-5.62-3.08-10.8-10-10.95h-.42v-.03Z"/><path class="cls-2" d="M5158.23,258.33c-5.83,0-10.62,3.26-10.68,9.24-.06,5.39,2.81,10.89,9.69,11.64,6.47-1.4,11.97-4.66,12.09-11.64.12-5.68-4.69-8.88-10.2-9.21h-.93l.03-.03Z"/><path class="cls-2" d="M5396.32,354.97c-5.6,0-10.59,3.38-10.29,10.38.24,5.9,3.17,10.98,8.97,10.98.3,0,.6,0,.93-.03,5.24-.48,10.71-3.44,10.92-10.56.15-7.09-4.57-10.65-10.29-10.74h-.24v-.03Z"/><path class="cls-2" d="M826.26,111.84c-5.6,1.17-10.77,3.8-10.44,10.47.3,6.05,4.55,10.86,10.53,11.1h.45c5.83,0,9.96-5.02,10.2-10.44.3-6.04-4.58-9.66-10.74-11.13Z"/><path class="cls-2" d="M5078.28,745.16c-3.74,1.52-9.07,2.39-9.28,10.02-.17,6.97,3.21,10.77,9.13,10.77h.39c5.78-.15,10.41-3.35,10.11-10.62-.24-5.92-2.57-9.63-10.35-10.17Z"/><path class="cls-2" d="M666.63,307.67c-5.21,0-9.04,4.01-9.64,9.15-.78,6.55,4.07,9.64,10.17,11.67,4.79-1.88,10.29-2.84,10.38-10.38.09-7.3-4.58-10.11-10.29-10.44h-.63Z"/><path class="cls-2" d="M1384.16,697.23c-.48,0-.96.03-1.44.12-5.87,1.01-11.58,4.27-10.68,12.2.69,5.96,4.49,7.84,13.04,7.84h1.98c2.57-.18,5.53-4.88,5.32-10.8-.18-4.91-3.35-9.33-8.19-9.33l-.03-.03Z"/><path class="cls-2" d="M1144.87,892.42h-.63c-6.1.27-11.34,3.59-10.71,9.97.45,4.75,2.75,10.68,8.98,10.68.45,0,.89,0,1.37-.09,5.87-.75,10.33-3.92,9.58-10.27-.24-6.58-2.87-10.29-8.59-10.29Z"/><path class="cls-2" d="M5079.99,940.12c-5.84,0-11.13,2.99-11.46,9.63-.33,6.34,4.01,11.01,9.84,11.64.39.03.75.06,1.11.06,5.8,0,8.14-5.21,9.21-10.68-.62-5.6-2.48-10.62-8.61-10.65h-.09Z"/><path class="cls-2" d="M511.04,697.23c-.48,0-.96.03-1.44.12-5.87,1.01-11.58,4.27-10.68,12.2.69,6.17,4.79,7.96,10.11,7.96h.6c7.06-.18,9.78-5.12,9.6-10.95-.15-4.91-3.35-9.33-8.2-9.33Z"/><path class="cls-2" d="M3968,258.24c-6.43,0-9.55,2.93-10.11,9.03-.63,6.8,2.6,11.08,8.67,11.08h.39c5.36-.15,11.58-2.67,11.52-9.55-.06-6.25-4.88-9.48-10.35-10.56h-.12Z"/><path class="cls-2" d="M5080.23,258.33c-.33,0-.66,0-1.02.03-6.02.45-11.43,3.59-10.41,10.29.65,4.34,2.3,9.84,8.43,9.84.93,0,1.95-.11,3.06-.38.53.06,1.04.09,1.52.09,5.81,0,7.15-4.4,6.79-10.48-.33-5.77-2.93-9.39-8.4-9.39h.03Z"/><path class="cls-2" d="M5714.3,549.33c-6.52,1.77-10.86,6.55-11.13,12.84-.24,5.56,4.52,8.13,9.75,8.13h.9c5.57-.29,10.35-3.53,10.26-9.12-.09-5.45-2.75-10.92-9.78-11.82v-.03Z"/><path class="cls-2" d="M4761.5,160.22h-.69c-6.91.33-10.02,5.21-9.72,11.22.26,5.36,4.51,8.95,9.36,8.95.36,0,.75,0,1.14-.06,5.02-.57,11.55-2.13,10.65-10.95-1.77-5.09-4.61-9.16-10.71-9.16h-.03Z"/><path class="cls-2" d="M4444.12,160.7c-4.94,0-10.27,2.3-10.03,9.01.24,6.43,4.31,9.93,10.15,11.57,5.53-1.16,9.84-4.3,10.14-9.84.36-6.46-4.16-10.74-10.26-10.74Z"/><path class="cls-2" d="M5553.98,1037.62c-5.09,1.23-8.59,4.13-9.07,10.15-.69,8.67,6.38,10.41,11.64,10.77h.45c4.52,0,9.13-4.4,8.62-9.99-.6-6.14-5.33-9.52-11.61-10.96l-.03.03Z"/><path class="cls-2" d="M4683.25,941.4h-.66c-5.95.33-10.05,2.7-10.74,9.88-.78,8.22,5.51,8.28,10.36,10.8,5.02-2.31,10.44-5.15,10.23-11.31-.18-4.97-3.41-9.37-9.19-9.37Z"/><path class="cls-2" d="M1620.99,405.36c-.42,0-.84,0-1.26.06-5.86.53-9.75,3.32-9.87,10.53-.15,8.23,6.19,7.66,10.53,9.93,5.41-1.49,9.36-3.71,9.12-10.17-.2-6.17-2.54-10.35-8.49-10.35h-.03Z"/><path class="cls-2" d="M1699.8,405.3c-7.12,0-10.32,4.39-10.8,9.9-.57,6.52,4.46,10.17,10.32,10.26h.18c5.15,0,9.76-3.47,9.94-9.06.21-5.9-2.96-10.42-8.68-11.1h-.96Z"/><path class="cls-2" d="M5713.19,253.81c0,5.9-.36,10.92.12,15.89.39,4.07-2.63,10.74,3.68,11.34.3,0,.6.03.9.03,5.57,0,9.01-5.33,9.87-10.86,1.59-10.17-4.42-14.42-14.57-16.43v.03Z"/><path class="cls-2" d="M190.57,209.65c-5.3,0-9.34,4.19-9.6,9.57-.33,6.5,4.34,10.15,10.35,10.98.51.06.96.09,1.41.09,5.45,0,6.91-4.96,8.5-9.63-.63-6.31-4.16-10.8-10.26-11.01h-.39Z"/><path class="cls-2" d="M1620.12,210.19c-5.53,0-9.96,3.71-9.99,9.54,0,5.63,3.26,10.56,10.11,10.56h.12c6.16-.06,8.86-3.65,9.1-10.29.8-5.53-2.73-9.24-8.14-9.75-.39-.03-.81-.06-1.2-.06Z"/><path class="cls-2" d="M4920.92,647.74c-.39,0-.78,0-1.17.06-5.77.63-10.32,4.93-9.18,11.46.9,5.17,4.85,8.55,11.49,9.03,3.77-2.18,8.77-4.7,8.44-10.41-.33-5.66-3.98-10.14-9.58-10.14Z"/><path class="cls-2" d="M905.02,795.3c-5.27,0-8.14,4.61-8.89,9.79-.93,6.67,4.01,9.06,9.1,9.84.54.09,1.05.12,1.56.12,4.85,0,7.6-3.86,9.42-8.26-.9-6.49-4.55-11.01-10.47-11.46h-.75l.03-.03Z"/><path class="cls-2" d="M269.45,1186.27c-5.36,0-8.8,2.63-8.38,8.58.36,5.03,1.77,10.92,8.17,10.92h.06c5.9,0,10.71-3.14,10.86-10.14.12-6.28-3.47-9.15-9.46-9.33-.42-.03-.84-.06-1.26-.06v.03Z"/><path class="cls-2" d="M112.84,892.69c-.27,0-.54,0-.84.03-5.99.6-10.56,4.67-9.79,11.22.63,5.39,4.76,8.68,11.22,9.49,5.15-2.19,8.56-6.88,8.11-12.63-.33-4.37-4.13-8.11-8.68-8.11h-.03Z"/><path class="cls-2" d="M271.54,503.4c-6.13,0-11.01,3.15-11.22,9.4-.18,5.26,3.68,9.24,9.6,10.17,5.48-1.49,10.44-3.71,10.23-10.86-.15-5.42-2.96-8.65-8.35-8.74h-.27v.03Z"/><path class="cls-2" d="M1541.99,503.34c-.39,0-.8,0-1.25.06-5.45.48-10.12,3.59-10.18,9.28-.06,5.27,3.53,10.05,9.07,10.05h.24c5.77-.15,10.5-3.41,10.62-10.56-.3-5.74-3.29-8.83-8.53-8.83h.03Z"/><path class="cls-2" d="M666.54,112.86c-5.39,0-8.86,4.58-9.07,9.48-.27,6.56,5,9.25,11.07,10.12,5.98-.57,9.13-3.8,8.83-9.97-.3-6.28-4.88-9.15-9.96-9.6-.3,0-.57-.03-.84-.03h-.03Z"/><path class="cls-2" d="M4840.16,63.19c-5.29,0-8.2,4.67-8.88,9.9-.87,6.71,4.33,8.29,9.24,10.06,5.69-.3,10.18-3.32,10.5-8.8.36-6.22-4.3-10.74-10.23-11.13h-.63v-.03Z"/><path class="cls-2" d="M3969.02,647.62c-.42,0-.87.03-1.35.09-5.39.78-9.45,4.72-9.25,10.35.18,5,2.25,10.23,8.74,10.23h.12c7-.06,9.01-5.2,10.32-11.34-1.94-4.01-3.17-9.33-8.58-9.33Z"/><path class="cls-2" d="M4127.81,258.3c-.45,0-.9,0-1.37.09-5.42.69-10.21,3.86-9.76,9.6.36,4.64,2.37,10.09,8.83,10.71,4.91-2.39,11.49-3.5,10.56-10.92-.6-4.75-2.69-9.45-8.26-9.45v-.03Z"/><path class="cls-2" d="M5398.18,648.19c-.57,0-1.17.06-1.8.21-4.7,1.04-10.59,3.23-10.02,9.6.48,5.59,4.04,9.96,9.66,9.96.48,0,.96-.03,1.47-.09,5.29-.65,8.58-4.81,9.36-11.61-2.24-2.96-3.8-8.04-8.67-8.04v-.03Z"/><path class="cls-2" d="M428.72,209.95c-4.79,1.31-8.23,4.79-8.62,10.26-.54,7.36,4.97,9.6,10.62,9.66h.09c4.61,0,8.68-2.99,8.29-8.46-.42-5.9-3.11-10.56-10.35-11.46h-.03Z"/><path class="cls-2" d="M588.17,16.13h-.6c-6.49.15-9.27,4.39-8.92,9.9.3,4.7,3.17,8.29,8.95,8.44h.42c7,0,8.95-4.73,10.38-10.6-.9-6.07-4.91-7.74-10.23-7.74Z"/><path class="cls-2" d="M4365.87,550.92h-.63c-4.9.3-9.57,3.14-9.96,9.3-.39,5.87,2.09,9.67,8.26,10.09.33,0,.63.03.92.03,6.2,0,8.53-4.61,10.18-9.94-.57-5.53-3.59-9.51-8.74-9.51l-.03.03Z"/><path class="cls-2" d="M269.48,990.71c-5.75,0-8.35,5.15-8.47,9.87-.15,5.93,4.16,9.88,9.64,9.88.36,0,.72,0,1.08-.06,5.27-.48,8.05-5.21,8.62-11.58-.63-5.48-5.18-7.78-10.2-8.11h-.66Z"/><path class="cls-2" d="M746.49,1282.85c-5.66.39-9.66,3.62-9.52,9.21.12,5.03,2.84,9.73,8.89,10.3.54.06,1.05.09,1.55.09,4.91,0,8.17-2.46,8.68-8.11.63-6.94-3.95-9.64-9.64-11.46l.03-.03Z"/><path class="cls-2" d="M5317.03,745.13c-4.7,2.12-9.82,4.67-9.52,11.25.21,4.84,3.65,8.88,8.41,9.06h.39c5.92,0,10.11-4.42,10.71-10.14.63-5.77-4.19-8.47-9.99-10.17Z"/><path class="cls-2" d="M587.72,210.88c-5.42,0-8.95,4.63-9.13,9.75-.21,5.59,4.1,9.33,9.46,9.33h.3c5.51-.15,8.62-4.45,10.05-9.54-.42-6.67-5.21-9.25-10.14-9.51h-.54v-.03Z"/><path class="cls-2" d="M1222.07,697.7c-4.88,1.38-8.11,5.51-8.83,10.48-.89,6.4,4.16,8.73,9.43,9.15.36,0,.72.03,1.05.03,5.35,0,8.31-3.29,8.37-9.15.06-6.32-4.31-8.62-10.05-10.51h.03Z"/><path class="cls-2" d="M1382.66,112.89h-.75c-4.91.36-10.23,3.08-9.57,9.51.54,5.06,2.66,9.91,9.18,9.91,6.26-.3,9.13-4.82,9.61-9.91.48-5.5-3.23-9.54-8.47-9.54v.03Z"/><path class="cls-2" d="M5077.2,452.39c-2.36,3.56-8.88,4.67-7.66,11.07.93,5,3.92,8.86,9.61,8.86h.84c6.25-.42,8.85-4.16,8.43-10.12-.45-6.19-5.11-8.11-11.19-9.78l-.03-.03Z"/><path class="cls-2" d="M5634.65,941.37c-5.78,0-9.04,2.96-9.16,9.1-.12,6.31,4.1,9.66,9.25,10.08.24,0,.48.03.72.03,5.11,0,7.57-4.82,9.54-9.07-1.76-5.23-3.71-9.99-9.96-10.14h-.39Z"/><path class="cls-2" d="M509.06,990.77c-5.39,0-9.1,4.07-9.81,9.34-.9,6.49,4.46,9.06,9.39,9.63.39.03.75.06,1.08.06,5.15,0,7.6-4.55,9.34-9.61-.75-5.44-4.22-9.24-9.64-9.42h-.39.03Z"/><path class="cls-2" d="M270.43,698.24c-6.25,0-8.86,5.9-9.22,11.1-.36,5.03,4.28,7.24,9.69,8.11,3.68-2.12,9.34-2.54,9.28-9.36-.06-6.2-4.22-9.58-9.25-9.82h-.48l-.03-.03Z"/><path class="cls-2" d="M4601.39,258.51c-4.91,0-7.07,4.52-7.9,8.88-1.14,5.93,2.75,9.88,8.16,10.21h.75c4.73,0,8.77-2.79,10.03-8.32-.6-5.66-3.86-9.43-8.98-10.56-.72-.15-1.41-.24-2.03-.24l-.03.03Z"/><path class="cls-2" d="M4681.88,63.25c-5.33,0-8.83,3.68-8.53,9.96.24,5.09,1.7,8.95,8.2,10.06,4.31-1.44,8.85-4.07,9.36-9.73.54-5.77-3.26-10.17-8.73-10.29h-.3Z"/><path class="cls-2" d="M31.9,308.17c-5.12,0-8.41,4.31-8.65,9.34-.24,5.44,3.47,9.87,8.92,9.87h.03c5.18,0,9.01-3.65,10.08-9.3-.54-5.87-4.46-9.4-9.49-9.88-.3,0-.6-.03-.9-.03Z"/><path class="cls-2" d="M5713.1,647.89c-4.81,1.73-8.97,4.84-8.41,10.5.48,4.82,3.48,9.07,8.5,9.07.42,0,.84,0,1.29-.09,5.06-.69,9.48-4.19,9.04-10.09-.45-5.65-4.94-8.2-10.42-9.39Z"/><path class="cls-2" d="M3888.2,356.35c-6.08,0-9.19,3.38-8.92,9.48.24,5.78,3.59,8.41,8.59,8.41.51,0,1.02,0,1.53-.09,5.41-.54,7.66-4.13,7.6-9.52-.42-5.32-3.36-8.25-8.71-8.31h-.12l.03.03Z"/><path class="cls-2" d="M4998.93,63.88c-5.18,0-8.59,3.95-8.5,9.13.06,4.24,2.15,8.91,8.56,9.75,3.86-2.63,10.62-3.02,10.38-10.44-.21-5.57-4.88-7.87-9.28-8.35-.38-.03-.8-.06-1.16-.06v-.03Z"/><path class="cls-2" d="M585.96,893.68c-5.24,0-6.28,5.39-7.27,9.4-1.47,6.04,4.16,8.04,8.35,8.55.48.06.96.09,1.41.09,5.86,0,9.07-4.85,9.13-10.29.06-4.31-2.99-7.6-8.17-7.6-.48,0-.96,0-1.5.09-.72-.15-1.38-.24-1.98-.24h.03Z"/><path class="cls-2" d="M825.66,1186.45c-6.13.48-8.89,4.13-8.41,10.11.42,5.24,3.59,7.87,8.56,7.87h.6c6.28-.24,8.95-4.07,8.5-10.02-.42-5.45-3.89-7.9-9.22-7.93l-.03-.03Z"/><path class="cls-2" d="M906.27,210.34c-4.22,1.94-9.37,2.81-9.87,8.4-.54,5.93,3.17,10.09,8.56,10.63.3,0,.57.03.87.03,4.31,0,8.26-3.06,9.04-7.81,1.02-6.23-4.46-8.26-8.59-11.25Z"/><path class="cls-2" d="M906.87,894.04h-.33c-5.09.18-10.35,2.66-10.26,8.95.09,6.22,5.3,8.7,10.44,8.76h.09c4.97,0,7.78-3.95,8.68-8.94-.99-4.91-3.8-8.77-8.65-8.77h.03Z"/><path class="cls-2" d="M4126.38,648.61c-5.15.95-9.01,3.8-9.04,8.91,0,4.49,1.82,9.91,7.3,9.91h.03c6.16,0,10.47-4.52,10.95-10.63.45-5.86-5.26-6.55-9.24-8.19Z"/><path class="cls-2" d="M4839.8,454.27c-5.02,0-7.42,3.98-7.69,8.71-.27,4.61,2.04,8.92,7.72,9.28h.78c5.63,0,8.05-4.04,9.81-9.46-.29-4.93-3.83-7.45-8.46-8.35-.75-.15-1.47-.21-2.13-.21l-.03.03Z"/><path class="cls-2" d="M5079.54,356.32c-.3,0-.63,0-.96.03-5.3.45-7.93,3.68-7.87,8.94.09,5.93,3.23,8.92,8.77,8.92h.63c5.2-.21,8.13-3.02,8.07-8.68-1.55-4.46-2.93-9.24-8.67-9.24l.03.03Z"/><path class="cls-2" d="M4839.77,356.23c-5.08,0-7.42,4.04-7.66,8.79-.24,4.61,2.1,8.92,7.78,9.22h.69c5.69,0,8.11-4.07,9.85-9.49-.36-4.93-3.89-7.45-8.56-8.31-.75-.15-1.44-.21-2.07-.21h-.03Z"/><path class="cls-2" d="M4682,356.32h-.51c-5.27.63-7.96,3.68-7.93,8.94.06,5.93,3.2,8.98,8.73,8.98h.6c5.18-.21,8.74-2.96,7.93-8.47-.72-4.91-2.78-9.45-8.85-9.45h.03Z"/><path class="cls-2" d="M4364.31,356.35c-6.46,0-8.25,5.08-8.7,10.02-.48,5.44,3.35,7.87,8.37,7.87h.21c6.11-.09,8.8-3.65,8.8-9.55-.51-5.35-3.35-8.28-8.62-8.31h-.09l.03-.03Z"/><path class="cls-2" d="M826.86,211.2h-.06c-5.12,0-9.4,3.36-9.64,9.58-.24,5.89,4.01,7.45,8.62,8.91,4.31-1.07,8.95-2.15,9.13-7.98.18-5.57-2.24-10.54-8.05-10.54v.03Z"/><path class="cls-2" d="M5317.99,63.82h-.54c-4.25.24-9.94,2.12-9.34,7.9.48,4.61,2.16,10.62,8.11,10.62h.54c5.2-.3,9.15-3.95,9.78-9.93-.92-4.97-3.95-8.62-8.58-8.62l.03.03Z"/><path class="cls-2" d="M5395.9,843.18c-3.59,1.91-8.29,3.02-8.56,9.63-.27,6.4,4.13,7.33,8.35,8.35.87.21,1.71.3,2.49.3,4.03,0,6.79-2.67,6.97-7.06.21-5.18-2.43-9.64-9.25-11.25v.03Z"/><path class="cls-2" d="M1382.6,894.04h-.66c-4.16.27-9.54,2.21-9.06,7.96.41,5.26,3.89,9.06,9.36,10.05,5.12-.78,8.83-3.68,9.01-8.65.21-5.5-3.38-9.39-8.62-9.39l-.03.03Z"/><path class="cls-2" d="M1304.03,1186.81c-.39,0-.81,0-1.23.09-4.31.53-9.64,1.94-9.13,7.86.42,4.91,2.55,9.61,8.53,9.61h.75c5.41-.33,7.87-3.71,8.02-9.19-.36-4.63-2.28-8.34-6.97-8.34l.03-.03Z"/><path class="cls-2" d="M4366.08,941.73c-.27,0-.54,0-.84.03-5.47.45-9.21,4.31-9.69,9.88-.45,4.81,2.99,7.33,7.48,7.65.39,0,.78.03,1.13.03,5.24,0,8.41-2.84,8.95-9.66-.42-3.77-1.94-7.96-7.03-7.96v.03Z"/><path class="cls-2" d="M4444.54,941.7h-.45c-4.88.21-8.92,3.68-9.13,8.62-.21,4.73,2.33,8.83,7.93,9.12,5.3-.18,9.9-2.84,10.17-7.54.27-4.84-2.42-10.2-8.52-10.2Z"/><path class="cls-2" d="M3888.26,161.27c-5.36,0-8.86,4.46-8.68,9.87.15,4.31,2.69,8.29,7.3,8.29.39,0,.78,0,1.2-.09,4.49-.63,8.44-3.2,8.83-9.01-.99-4.54-3.68-8.91-8.35-9.06h-.3Z"/><path class="cls-2" d="M588.89,699.38c-4.82,0-8.68,2.72-9.43,7.48-.66,4.28,2.04,9.1,7.18,10.11.66.12,1.29.18,1.85.18,5,0,6.67-4.64,8.47-9.18,0-4.16-1.41-7.78-6.19-8.44-.63-.09-1.29-.15-1.88-.15Z"/><path class="cls-2" d="M4601.66,161.96c-4.37,0-6.86,2.96-7.16,8.07-.32,5.42,1.86,9.31,7.04,9.67h.65c5.36,0,7.93-4.49,9.79-9.88-.45-5.05-4.61-7.24-9.04-7.77-.45-.06-.89-.09-1.31-.09h.03Z"/><path class="cls-2" d="M32.11,601.42c-2.87,1.86-8.74,1.74-8.83,7.45-.06,5.51,3.92,9.31,9.22,10.02.48.06.9.09,1.35.09,4.55,0,6.64-3.62,6.79-8.31.18-5.18-2.15-8.53-8.53-9.25Z"/><path class="cls-2" d="M5317.78,941.73h-.51c-4.88.24-8.83,3.56-9.07,8.38-.27,5.03,3.86,8.2,8.53,8.83.48.05.9.08,1.32.08,4.63,0,6.55-3.65,6.97-8.34-.21-5-2.01-8.95-7.24-8.95Z"/><path class="cls-2" d="M190.81,308.71c-5.21.99-7.63,4.01-7.48,9.52.15,5.32,2.63,8.41,7.33,8.41.3,0,.6,0,.9-.03,5.03-.39,8.44-4.1,8.2-9.19-.24-5.03-3.92-7.96-8.95-8.71Z"/><path class="cls-2" d="M31.66,699.38c-5.03,0-7.36,3.8-7.84,8.05-.57,5.11,3.26,8.76,7.96,8.97h.54c4.31,0,8.08-2.51,8.41-7.78-.15-5.47-2.63-8.64-7.96-9.18-.39-.03-.75-.06-1.08-.06h-.03Z"/><path class="cls-2" d="M905.11,114.32h-.3c-5.74.12-8.05,4.46-7.84,9.01.21,4.37,3.35,8.08,7.87,8.08.33,0,.69,0,1.05-.06,4.49-.54,8.44-3.2,7.66-10.95-.51-3.29-3.35-6.05-8.44-6.05v-.03Z"/><path class="cls-2" d="M5634.05,552.23c-4.34.36-8.5,2.16-8.23,7.9.24,4.91,3.53,8.92,8.26,9.22h.51c4.67,0,7.66-4.07,8.26-8.62.77-5.65-3.06-7.93-8.8-8.5Z"/><path class="cls-2" d="M4761.56,259.35h-.06c-5.51.03-8.95,4.45-8.77,10.08.15,4.73,3.8,6.79,8.29,6.82h.09c5.09,0,8.44-2.21,8.89-8.05-1.11-4.49-3.71-8.85-8.44-8.85Z"/><path class="cls-2" d="M825.99,797.4h-.33c-4.58.09-7.99,2.3-8.23,7.09-.3,5.65,4.04,8.26,8.59,8.94.45.06.87.09,1.29.09,4.55,0,6.31-4.1,7.54-8.04-.51-5.84-3.83-8.08-8.86-8.08Z"/><path class="cls-2" d="M4920.83,161.96c-.51,0-1.02.03-1.58.12-4.97.74-8.17,4.48-7.54,9.66.53,4.46,3.68,6.67,8.49,6.67h.06c5.99,0,8.11-2.96,7.81-6.4-.33-6.97-2.9-10.08-7.24-10.08v.03Z"/><path class="cls-2" d="M4444.27,1039.51c-4.37,1.08-8.92,3.02-8.41,8.5.42,4.52,2.87,9.03,8.47,9.09h.09c4.75,0,7.06-3.29,7.33-7.84.33-5.17-1.68-8.85-7.51-9.75h.03Z"/><path class="cls-2" d="M5554.1,162.02c-3.98,0-7,3.95-7.12,8.37-.15,5.81,3.8,7.72,9.3,7.93,4.1-.36,7.75-2.3,7.9-7.09.21-6.43-4.94-9.09-9.93-9.21h-.15Z"/><path class="cls-2" d="M4284.39,357.21c-3.59,0-7.3,2.04-7.54,6.38-.27,4.6,1.5,9.72,6.85,10.2.36.03.72.06,1.08.06,4.07,0,7.87-2.16,9.25-6.97-.84-5.03-3.65-8.92-8.41-9.55-.42-.06-.84-.09-1.26-.09l.03-.03Z"/><path class="cls-2" d="M4286.43,747.19h-.6c-4.46.33-8.95,2.78-9.16,8.41-.18,4.91,3.09,7.3,7.57,7.66.42.03.87.06,1.26.06,4.43,0,7.63-2.1,8.56-7.45-.9-4.34-2.76-8.71-7.66-8.71l.03.03Z"/><path class="cls-2" d="M1382.87,992.06h-.69c-4.34.33-9.6,2.06-9.27,7.87.26,4.48,2.66,8.43,8.34,8.43h.63c5.06-.47,7.81-3.47,7.87-8.88.06-4.88-3.02-7.45-6.88-7.45v.03Z"/><path class="cls-2" d="M589.64,1089.21c-.36,0-.75,0-1.14.09-4.43.62-8.77,3.5-9.01,8.61-.27,5.36,3.98,8.17,8.59,8.2h.12c4.67,0,7.96-3.08,8.83-8.02-1.62-4.01-2.63-8.91-7.39-8.91v.03Z"/><path class="cls-2" d="M1143.05,308.65c-4.31,1.98-8.02,4.85-7.18,10,.65,4.01,2.75,7.9,7.15,7.9.54,0,1.07-.06,1.67-.18,4.88-.96,7.66-5.15,7.72-9.79.09-5.65-5.23-6.4-9.39-7.96l.03.03Z"/><path class="cls-2" d="M508.31,1186.6c-4.04,1.7-8.77,3.41-7.48,9.24.93,4.22,3.17,8.32,8.08,8.32.36,0,.69,0,1.08-.06,4.76-.54,6.7-4.07,6.64-8.65-.06-5.29-2.45-8.61-8.32-8.85Z"/><path class="cls-2" d="M4047.44,746.92h-.74c-4.88.36-8.38,4.01-8.26,8.95.09,4.43,2.63,7.51,7.03,7.51.57,0,1.19-.06,1.82-.15,4.64-.81,8.08-3.23,8.83-8.11-1.35-4.91-4.16-8.17-8.68-8.17v-.03Z"/><path class="cls-2" d="M1066.51,1181.3c-.3,0-.57,0-.84.03-4.97.45-12.78.9-12.51,7.78.12,2.93,1.59,3.59,3.59,3.59,1.53,0,3.38-.39,5.12-.39,1.02,0,2,.12,2.87.54.69-.63,1.62-.84,2.66-.84,1.47,0,3.15.39,4.61.39,2.04,0,3.68-.75,3.86-4.34.21-4.36-5.23-6.76-9.36-6.76Z"/><path class="cls-2" d="M4443.16,259.2h-.12c-5.42.06-7.42,5.32-7.27,9.57.15,3.98,3.89,7.03,8.23,7.18h.39c5.26,0,7.21-3.71,7.48-8.65-.33-5.59-4.22-8.1-8.68-8.1h-.03Z"/><path class="cls-2" d="M746.19,407.15c-4.88,0-7.45,4.16-7.54,8.86-.09,4.69,3.26,6.91,7.72,7.3.33,0,.63.03.9.03,5.03,0,6.67-3.95,8.38-8.74-.78-4.73-4.76-7.24-9.13-7.45h-.39.06Z"/><path class="cls-2" d="M4045.62,65.25c-4.25,0-6.77,2.76-7.06,6.68-.45,5.77,3.32,9.57,8.82,9.72h.24c3.95,0,7.18-2.6,7-9.63-.15-3.09-2.63-6.17-7.93-6.71-.38-.03-.74-.06-1.07-.06Z"/><path class="cls-2" d="M588.44,114.35c-5.83.51-8.17,4.61-8.95,9.1-.96,5.56,4.28,6.58,7.81,7.09.45.06.9.09,1.35.09,4.37,0,7.57-3.23,8.02-7.75.54-5.54-4.04-7.33-8.2-8.56l-.03.03Z"/><path class="cls-2" d="M4363.27,65.25h-.12c-3.98.72-8.23,2.16-6.88,7.33.92,3.54,1.64,8.89,6.58,8.89.42,0,.87-.03,1.35-.12,4.42-.75,8.79-3.26,8.49-8.79-.3-5.54-4.28-7.31-9.45-7.31h.03Z"/><path class="cls-2" d="M4920.14,1039.51c-4.28,1.11-8.76,3.05-8.28,8.35.35,3.95,2.06,8.67,6.97,8.67.39,0,.78,0,1.19-.08,3.8-.54,7.63-2.58,7.78-7.57.15-5.15-1.94-8.59-7.63-9.37h-.03Z"/><path class="cls-2" d="M746.43,16.66c-3.35,2.07-8.29,2.73-8.05,8.74.24,5.69,4.31,7.9,8.83,7.99h.12c4.16,0,7.45-3.5,7.78-7.48.42-5.06-3.59-7.63-8.71-9.25h.03Z"/><path class="cls-2" d="M4681.99,747.07c-.38,0-.8,0-1.19.09-4.49.66-7.69,4.67-6.85,9.91.71,4.48,4.01,6.25,8.16,6.25h.54c5.69-.21,6.89-4.64,8.23-9.28-1.55-4.24-5.03-6.97-8.86-6.97h-.03Z"/><path class="cls-2" d="M1222.67,503.94c-4.19,2.1-8.44,4.61-7.39,9.82.77,3.95,3.02,7.57,7.54,7.57.54,0,1.1-.06,1.73-.15,4.64-.84,6.73-4.67,6.64-8.59-.12-4.91-3.77-7.66-8.52-8.65Z"/><path class="cls-2" d="M1619.07,992.21c-4.55,0-6.67,3.98-7.21,8.19-.6,4.67,2.39,7.69,6.85,7.69h.27c4.94-.15,7.87-3.71,9.64-8.11-.36-5.2-4.31-7.03-8.08-7.65-.51-.09-.99-.12-1.47-.12Z"/><path class="cls-2" d="M5475.52,552.29c-4.34.69-7.66,2.85-7.39,7.66.27,4.94,3.44,8.8,8.2,9.4.3.03.6.06.9.06,4.31,0,5.89-4.43,6.49-7.99.96-5.69-3.68-7.42-8.17-9.13h-.03Z"/><path class="cls-2" d="M4920.35,259.89c-4.78,0-8.64,3.29-8.58,8.25.06,4.97,4.01,7.81,8.7,7.81h.39c4.64-.15,6.7-3.68,6.91-8.23.3-5.11-3.02-7.71-7.15-7.83h-.27Z"/><path class="cls-2" d="M112.03,406.73c-5.06.96-8.8,3.89-8.62,8.89.15,4.25,3.86,7.12,8.14,7.33h.63c5.15,0,7.21-3.65,7.33-8.68.12-5.11-3.35-6.73-7.45-7.57l-.03.03Z"/><path class="cls-2" d="M112.03,505.05c-4.67,0-7.66,2.87-7.27,8.32.33,4.58,2.78,7.3,7.42,7.81,4.61-.63,6.91-3.35,7.3-7.96.42-5-2.42-7.87-6.73-8.14h-.72v-.03Z"/><path class="cls-2" d="M5714.12,357.07c-5.24,0-6.85,4-7.87,7.83-1.38,5.12,2.66,7.93,6.43,8.5.42.06.87.09,1.32.09,3.5,0,7.18-2,7.69-6.25.63-5.27-3.41-7.96-7.48-10.17h-.09Z"/><path class="cls-2" d="M112.03,1284.82c-5.12,0-7.18,3.6-7.3,8.62-.12,5.06,3.32,7.39,7.33,7.39h.18c4.13-.06,7.45-2.6,7.24-7.72-.24-4.46-2.09-7.99-6.82-8.26h-.63v-.03Z"/><path class="cls-2" d="M4603.69,65.25c-.33,0-.66,0-1.02.06-4.52.45-7.78,2.79-7.66,7.45.12,5.24,3.62,7.45,8.29,7.45h.84c4.91-.26,6.43-3.8,6.88-8.1-1.17-3.95-3.11-6.8-7.36-6.8l.03-.06Z"/><path class="cls-2" d="M3809.68,748.36c-4.55.06-8.17,1.58-8.88,6.4-.75,4.85,2,7.93,6.58,8.29h.72c4.1,0,7.39-2.75,8.14-6.67.89-4.46-1.83-7.57-6.56-8.05v.03Z"/><path class="cls-2" d="M4522.9,943.05c-3.8,0-6.67,2.24-6.97,6.73-.3,4.37,1.05,7.96,6.07,8.86,3.89-1.11,7.87-2.16,8.56-7.1.69-4.93-2.03-7.92-6.46-8.43-.42-.06-.81-.06-1.2-.06Z"/><path class="cls-2" d="M5078.1,65.58c-4.67,0-7.45,3-7.09,7.75.36,4.82,3.83,6.74,8.35,6.95h.18c4.96,0,7.54-3.33,7.12-7.57-.42-4.22-4.07-7.1-8.5-7.13h-.06Z"/><path class="cls-2" d="M666.39,797.64c-3.68,0-6.16,2.54-6.52,6.67-.45,4.88,2.69,7.33,7.18,7.96.51.06,1.02.12,1.47.12,3.89,0,6.13-2.49,7.21-6.79-.45-4.4-3.56-7.01-7.6-7.78-.6-.12-1.2-.18-1.73-.18Z"/><path class="cls-2" d="M4365.78,650.64h-.42c-4.43.18-8.05,3.05-8.38,7.24-.32,4.13,2.31,7.39,7.1,7.39h.39c4.54-.18,7.51-2.3,8.43-7.54-.6-3.89-2.51-7.12-7.12-7.12v.03Z"/><path class="cls-2" d="M1380.86,602.32h-.06c-4.24,0-5.62,3.65-5.8,7.54-.24,4.91,2.72,7.75,6.67,7.75h.66c4.22-.33,6.67-4.13,7.33-8.59-.96-4.91-4.73-6.67-8.77-6.67l-.03-.03Z"/><path class="cls-2" d="M1381.76,797.64c-4.58.95-6.64,3.92-6.7,8.52-.06,4.25,2.15,6.14,5.92,6.14h.66c4.55-.24,7.81-2.6,7.84-7.33.03-4.7-2.93-7.18-7.72-7.33Z"/><path class="cls-2" d="M3966.74,65.47h-.06c-2.66,1.58-7.24,3.14-6.79,7.63.42,4,4.13,6.85,8.47,6.85,4.61,0,7.42-2.94,7.15-7.57-.27-4.61-3.26-6.88-8.77-6.88v-.03Z"/><path class="cls-2" d="M5160.06,357.93h-.48c-4.13.39-9.61,2.04-9.1,7.87.36,4.01,3.59,7.51,7.93,7.51h.06c4.88-.03,5.75-4.76,7.3-8.47-.12-3.92-2.57-6.94-5.74-6.94l.03.03Z"/><path class="cls-2" d="M5554.97,552.95c-3.71,1.59-8.44,2.33-7.93,7.72.45,4.91,4.13,6.61,8.64,6.64h.06c4.37,0,6.8-2.93,6.92-6.61.15-4.64-3.33-6.97-7.69-7.75Z"/><path class="cls-2" d="M983.68,1091.54c-2.99,0-5.36,1.17-5.66,5.12-.36,4.43.93,7.99,5.93,9.03,3.86-1.13,8.29-2,8.35-7.12.06-4.01-2.75-6.37-6.7-6.88-.66-.09-1.29-.15-1.91-.15Z"/><path class="cls-2" d="M746.01,602.86c-3.95,1.25-7.39,3.74-6.79,8.28.42,3.18,2.9,6.5,6.37,6.5.24,0,.48,0,.72-.06,3.62-.45,8.59-1.41,8.02-6.94-.48-4.46-3.77-6.89-8.29-7.81l-.03.03Z"/><path class="cls-2" d="M747.18,798.32c-4.28,0-7.33,3.57-7.87,7.6-.57,4.19,2.96,5.9,6.67,6.38.48.06.93.09,1.38.09,3.89,0,6.1-2.46,7.24-6.73-.54-4.16-3.11-7.34-7.39-7.34h-.03Z"/><path class="cls-2" d="M3809.2,163.24c-4.57,0-6.97,2.96-7.18,7-.18,3.74,1.26,7.69,5.69,7.69.36,0,.72,0,1.11-.09,4.15-.56,6.91-3.41,7.9-7.9-1.26-3.23-2.49-6.4-6.83-6.67h-.72l.03-.03Z"/><path class="cls-2" d="M1064.47,895.68c-3.95,0-6.58,1.95-7.33,5.75-.93,4.79,1.49,8.02,6.19,8.56.39.06.78.06,1.14.06,4.13,0,6.55-2.88,6.7-7.15.12-3.98-2.39-6.47-6.22-7.19h-.48v-.03Z"/><path class="cls-2" d="M5237.41,261.35h-.96c-4.22.18-6.52,3.47-6.37,6.91.17,4.25,3.41,6.85,7.86,7.33,3.71-1.82,7.48-4.04,7.25-8.49-.24-4.67-3.92-5.78-7.78-5.78v.03Z"/><path class="cls-2" d="M1064.17,993.58c-3.98.48-6.79,2.43-7.12,6.56-.42,4.9,2.39,7.77,7.03,7.95h.3c3.74,0,6.41-2.42,6.76-6.4.42-4.94-2.45-7.36-6.94-8.11h-.03Z"/><path class="cls-2" d="M269.18,310.48c-3.77.84-6.88,2.87-5.86,7.06.81,3.29,2.07,7.48,6.19,7.48.45,0,.96-.06,1.5-.18,3.86-.81,8.11-3.14,7.15-7.87-.81-4.01-4.49-6.37-8.98-6.49Z"/><path class="cls-2" d="M508.76,17.92c-3.47,0-6.01,2.1-6.76,6.11-.87,4.81,1.77,7.9,6.19,8.4.3.03.57.06.84.06,4.1,0,5.75-3.74,7.27-6.94.81-4.82-2.21-6.76-5.69-7.45-.63-.12-1.26-.18-1.83-.18h-.03Z"/><path class="cls-2" d="M906.18,603.13c-4.22,0-7.3,2.63-7.15,7.69.12,4.37,3.08,5.89,6.7,7.09,4.1-.96,7.36-3.41,7.18-7.9-.15-3.68-3.11-6.85-6.7-6.85l-.03-.03Z"/><path class="cls-2" d="M3887.63,66.09c-3.44,0-6.28,2.94-6.52,6.17-.33,4.57,3.74,6.52,7.3,7.66h.69c4.54,0,5.92-3.5,6.67-6.62,1.4-5.77-3.71-6.67-7.3-7.18-.3-.03-.57-.06-.84-.06v.03Z"/><path class="cls-2" d="M1540.38,895.57c-3.77.38-7.15,1.88-6.82,6.13.29,3.92,1.88,8.14,6.7,8.35h.33c3.65,0,6.16-2.52,6.52-6.38.42-4.75-2.33-7.21-6.73-8.1Z"/><path class="cls-2" d="M1539.81,993.73c-3.56,0-6.64,2.01-6.25,6.11.36,3.89,1.88,8.13,6.79,8.22h.18c3.77,0,5.98-2.63,6.67-6.43,0-4.76-2.45-7.69-6.97-7.9h-.45.03Z"/><path class="cls-2" d="M345.99,504.66c-3.65,0-7,3.35-5.95,8.2.81,3.8,1.17,8.71,6.25,9.15.3,0,.57.03.81.03,5.21,0,1.89-5.11,3.11-7.57-.99-3.53,2.04-9.36-3.77-9.78h-.42l-.03-.03Z"/><path class="cls-2" d="M825.04,506.46c-3.65,0-5.8,2.87-6.1,6.31-.48,5.41,4.55,6.58,8.17,6.85h.45c3.44,0,6.19-2.99,5.66-6.91-.48-3.53-2.6-6.28-7.03-6.28h-1.14v.03Z"/><path class="cls-2" d="M351.52,115.97c-.27,0-.57,0-.87.06-3.29.42-7.66,1.64-7.75,5.86-.09,4.31,2.48,7.33,7.3,7.33h.33c4.4-.12,5.8-3.26,7.03-6.85-.9-3.29-2.54-6.37-6.04-6.37v-.03Z"/><path class="cls-2" d="M4285.05,261.35c-4.04,0-6.28,2.51-6.79,6.07-.69,4.85,2.87,7.54,6.88,7.87h.54c3.71,0,5-3.53,5.48-7.06.15-4.07-1.23-6.73-5.75-6.88h-.36Z"/><path class="cls-2" d="M4523.17,163.57c-3.62,0-6.79,1.92-6.4,5.93.3,3.29,1.13,7.68,5.38,7.68.45,0,.96-.06,1.5-.15,3.23-.65,6.7-2.27,6.76-6.76-.6-3.92-2.84-6.49-6.73-6.67h-.48l-.03-.03Z"/><path class="cls-2" d="M5396.77,261.59h-.39c-4.52.21-7.57,2.9-6.97,7.75.45,3.74,3.38,5.33,6.52,5.33.36,0,.75,0,1.14-.06,3.47-.39,6.67-2.13,6.37-7.66-.93-2.64-2.96-5.36-6.67-5.36Z"/><path class="cls-2" d="M5238.66,455.98c-.45,0-.93.06-1.46.18-3.6.81-6.17,3.05-5.84,7.45.3,4.07,2.45,5.57,5.72,5.57.41,0,.86,0,1.34-.09,4.25-.45,5.45-3.68,6.2-7.36-1.26-2.91-2.76-5.75-5.99-5.75h.03Z"/><path class="cls-2" d="M112.72,213.78c-3.53.42-7.03,1.32-7.6,5.56-.57,4.1,1.86,6.83,5.72,7.45.48.09.93.12,1.32.12,4.31,0,5.57-4.04,6.31-7.48.87-3.95-2.96-4.51-5.78-5.68l.03.03Z"/><path class="cls-2" d="M429.65,116.06c-3.23,0-6.01,2.06-6.46,6.01-.45,4.04.81,6.91,5.39,7.12.33.03.66.06.96.06,3.71,0,5.68-2.54,6.43-5.89.96-4.28-2.03-6.91-5.6-7.24-.24,0-.48-.03-.72-.03v-.03Z"/><path class="cls-2" d="M5238.21,163.57c-.24,0-.51,0-.77.03-3.6.87-5.99,3.32-5.84,7.33.12,3.53,1.83,6.49,5.24,6.49.39,0,.8-.03,1.22-.12,3.44-.62,6.65-3.29,6.32-7.27-.27-3.32-1.89-6.46-6.2-6.46h.03Z"/><path class="cls-2" d="M1382.84,1091.72c-.54,0-1.11.06-1.68.18-3.83.75-6.31,3.35-5.74,7.45.48,3.56,2.99,5.36,5.92,5.36.54,0,1.11-.06,1.65-.18,3.44-.75,5.83-3.56,6.07-7.54-1.04-3.44-3.2-5.24-6.22-5.24v-.03Z"/><path class="cls-2" d="M5556.01,66.09c-.48,0-.98.06-1.55.21-3.35.84-6.59,3.35-6.05,7.45.42,3.14,1.92,6.23,5.51,6.23.45,0,.9-.06,1.4-.15,3.92-.75,5.84-3.47,5.93-7.72-.69-3.12-2.07-6.02-5.24-6.02Z"/><path class="cls-2" d="M667.02,700.82c-3.5,1.22-6.49,3.53-6.64,7.27-.18,4.03,2.78,5.98,6.4,5.98h.57c3.95-.21,6.52-2.78,6.67-6.79.15-4.49-3.53-5.51-7-6.43v-.03Z"/><path class="cls-2" d="M746.76,701.05c-4.52,0-5.6,3.71-6.46,6.95-1.29,4.9,2.36,5.95,6.04,6.25.33,0,.63.03.93.03,3.53,0,5.72-1.8,5.8-5.99.06-4.36-2.69-6.13-6.28-7.27l-.03.03Z"/><path class="cls-2" d="M1223.3,311.17c-4.1,0-7.36,2.99-7.09,7.18.2,3.26,3.23,6.13,6.91,6.13h.33c3.74-.18,5.86-3.17,7.3-6.49-1.14-3.59-3.44-6.61-7-6.79h-.45v-.03Z"/><path class="cls-2" d="M5317.99,163.54c-.48,0-.96.03-1.47.12-3.89.63-6.34,3.23-5.99,7.3.33,3.74,3.03,5.54,6.05,5.54.45,0,.93-.03,1.38-.12,3.5-.6,5.86-3.5,6.28-7.48-.96-3.5-3.14-5.39-6.28-5.39l.03.03Z"/><path class="cls-2" d="M4047.5,261.56c-.24,0-.51,0-.78.03-3.29.27-6.01,2.06-6.01,5.56,0,3.92,2.84,7.16,6.34,7.34h.33c3.5,0,5.54-3.45,6.82-7.51-1.13-3-3.02-5.45-6.7-5.45v.03Z"/><path class="cls-2" d="M668.28,19.36h-.06c-3.74,0-7.18,1.22-7.66,5.38-.48,4.34,2.75,6.2,6.43,6.2h.18c3.86-.06,6.25-2.52,6.88-6.62-.09-3.77-2.48-4.93-5.77-4.93v-.03Z"/><path class="cls-2" d="M747.54,311.17h-.57c-3.68.36-7.06,3.08-6.88,6.79.18,3.56,3.44,5.92,7.3,6.64,4.01-.99,5.92-3.68,5.42-7.75-.39-3.11-2.18-5.71-5.27-5.71v.03Z"/><path class="cls-2" d="M5238.18,846.73c-3.71,0-6.01,2.52-6.55,6.29-.48,3.29.72,5.95,4.46,6.82,3.26-.99,7.42-1.53,8.17-5.57.69-3.68-1.14-7.21-5.45-7.54h-.63Z"/><path class="cls-2" d="M3968.48,846.65h-.45c-3.98.26-6.58,2.81-6.67,6.82-.09,4.46,3.5,5.56,7.12,6.4,3.23-1.47,6.49-3.2,5.53-7.6-.62-2.87-2.18-5.65-5.53-5.65v.03Z"/><path class="cls-2" d="M1619.4,506.69h-.63c-4.31.33-5.92,3.8-5.53,7.51.33,2.97,2.78,5.48,5.68,5.48h.51c3.41-.33,6.88-2.04,6.52-7.06-.8-3.41-2.9-5.93-6.58-5.93h.03Z"/><path class="cls-2" d="M5158.65,164.11c-.27,0-.54,0-.84.06-3.41.42-6.82,3.05-6.55,7.09.21,3.08,3.08,5.51,6.1,6.04.45.09.9.12,1.29.12,3.47,0,4.85-2.96,5.51-6.31-.33-3.77-1.92-6.97-5.51-6.97v-.03Z"/><path class="cls-2" d="M826.17,994.3c-4.25,0-5.98,3.38-5.65,7.39.27,3.2,2.09,5.87,5.36,5.87h.33c3.83-.21,6.04-3.12,7.42-6.65-1.41-3.5-3.62-6.61-7.42-6.61h-.03Z"/><path class="cls-2" d="M5634.8,749.2c-.27,0-.51,0-.81.06-4.16.56-5.77,3.83-5.15,7.83.48,3.03,2.34,5.48,5.18,5.48.3,0,.6,0,.9-.09,3.47-.6,6.19-3.08,6.94-7.9-2.15-1.73-3.47-5.38-7.06-5.38Z"/><path class="cls-2" d="M5317.66,553.82c-3.65.81-7.25,1.85-7.19,6.31.03,4.04,2.67,6.56,6.62,6.91h.54c3.29,0,4.84-2.75,5.5-5.59,1.02-4.43-2.27-6.1-5.47-7.66v.03Z"/><path class="cls-2" d="M1620,604.44c-4.13,0-6.31,2.67-6.7,6.7-.36,3.71,2.78,4.82,5.86,5.06.36,0,.72.03,1.08.03,3.35,0,5.74-1.41,5.89-5.59.06-3.41-1.19-5.72-4.84-6.14-.45-.06-.87-.09-1.29-.09v.03Z"/><path class="cls-2" d="M4920.35,553.97h-.51c-3.41.33-7.09,2.06-6.49,6.73.51,4.01,3.14,6.13,8.23,6.4,2.54-1.31,5.06-3.77,4.49-7.69-.45-2.99-2.81-5.47-5.72-5.47v.03Z"/><path class="cls-2" d="M1699.62,994.24c-.27,0-.51,0-.81.06-4.15.57-5.77,3.83-5.14,7.84.48,3.02,2.33,5.48,5.17,5.48.3,0,.6,0,.9-.09,3.47-.6,6.2-3.09,6.94-7.9-2.15-1.74-3.47-5.39-7.06-5.39Z"/><path class="cls-2" d="M429.68,701.11c-3.29,0-6.37,1.95-6.34,6.08,0,4.07,2.69,6.64,6.67,6.91h.75c2.84,0,5.27-1.23,5.54-4.97-1.14-3.26-1.65-7.63-5.8-8.02-.27,0-.51-.03-.78-.03l-.03.03Z"/><path class="cls-2" d="M4840.46,651.21c-.33,0-.66,0-1.02.09-4.06.69-5.68,4.04-4.84,8.02.57,2.81,2.33,5.2,5.08,5.2.39,0,.78-.06,1.2-.15,3.38-.8,6.22-3.11,6.52-7.3-1.67-2.84-3.53-5.89-6.91-5.89l-.03.03Z"/><path class="cls-2" d="M4682.83,651.21c-.36,0-.72.03-1.1.12-3.89.81-5.6,3.98-4.76,7.96.66,3.17,2.63,5.2,6.07,5.2h.15c3.74-1.43,5.6-4.16,4.76-8.14-.6-2.81-2.33-5.14-5.09-5.14h-.03Z"/><path class="cls-2" d="M5713.88,846.59c-2.99.65-5.83,2.36-6.16,6.52-.33,3.86,2.18,5.15,5.29,5.15h.33c3.56-.09,7.39-.66,6.85-5.6-.33-3.02-1.91-5.71-6.31-6.07Z"/><path class="cls-2" d="M1541.75,702.46h-.59c-3.56.18-7.33.9-6.56,5.86.48,3.06,2.16,5.63,5.81,5.75,3.86-.6,6.46-2.66,6.64-6.73.18-3.74-2.36-4.91-5.33-4.91l.03.03Z"/><path class="cls-2" d="M430.49,1091.78h-.06c-3.98.06-6.67,2.33-6.94,6.34-.3,4.22,2.24,5.21,5.21,5.21.6,0,1.23-.03,1.85-.12,3.11-.33,5.78-1.53,5.6-5.98-1.2-2.25-1.98-5.48-5.65-5.48v.03Z"/><path class="cls-2" d="M1699.38,311.26c-4.22,0-5.92,3.14-5.77,7.03.12,3.23,1.91,5.98,5.35,6.04h.15c4.19,0,5.57-3.2,5.81-7-.54-3.23-2.01-6.04-5.45-6.07h-.09Z"/><path class="cls-2" d="M4999.44,748.63c-4.19,0-5.96,3.53-5.96,6.79,0,3.08,2.07,6.16,5.33,6.16.42,0,.84-.06,1.29-.15,3.29-.74,5.65-3.65,5.86-7.45-.81-3.5-3.11-5.23-6.28-5.35h-.24Z"/><path class="cls-2" d="M985.03,408.59c-3.14,0-5.98,1.7-6.25,4.93-.39,4.49,2.57,7.66,6.7,7.99h.3c2.78,0,4.61-2.93,5.57-6.37-1.35-2.63-1.85-6.52-6.28-6.55h-.06.03Z"/><path class="cls-2" d="M1143.08,1183.99c-3.42,0-6.56,2.49-9.82,8.05h.06c3.23,0,6.14.3,9.07.3,3.53,0,7.09-.45,11.25-2.45-3.98-3.8-7.39-5.93-10.56-5.93v.03Z"/><path class="cls-2" d="M4998.9,457.66c-3.29,0-5.78,1.73-6.14,5.44-.32,3.5,2.31,5.42,5.48,5.84.45.06.9.09,1.32.09,3.23,0,5.41-1.83,6.28-5.42-.27-3.56-2.42-5.44-5.66-5.86-.44-.06-.86-.09-1.31-.09h.03Z"/><path class="cls-2" d="M112.24,19.6h-.75c-3.23.21-5.86,2.06-5.83,5.53.06,4.31,3.2,5.75,7.09,5.87,3.17-.6,5.89-2.13,5.81-5.63-.09-4.01-2.81-5.77-6.34-5.77h.03Z"/><path class="cls-2" d="M1222.58,214.08c-.39,0-.78,0-1.17.09-3.41.48-4.4,3.8-3.68,7.09.69,3.23,2.69,5.23,6.1,5.23h.06c3.27-1.13,5.24-3.38,4.91-6.76-.36-3.86-3.11-5.65-6.22-5.65Z"/><path class="cls-2" d="M509.63,799.04c-.3,0-.57.03-.9.09-3.32.72-6.19,3.53-6.07,7.45.09,2.93,2.07,5,4.67,5,.42,0,.87-.06,1.32-.18,3.26-.84,6.1-3.08,6.43-7.06-1.17-2.66-2.87-5.33-5.48-5.33l.03.03Z"/><path class="cls-2" d="M5475.25,651.99c-2.93,0-5.59,2.57-5.71,5.44-.18,3.83,2.84,5.9,6.58,6.47,2.69-1.26,6.02-1.83,6.2-5.57.21-4.58-3.39-6.07-6.71-6.31h-.36v-.03Z"/><path class="cls-2" d="M3889.21,652.11h-.02c-2.91,0-6.08,1.4-6.56,5.02-.54,4.04,1.32,7.09,5.54,7.27h.27c3.35,0,4.72-2.81,5.38-5.89,0-3.32-.98-6.4-4.61-6.4Z"/><path class="cls-2" d="M192.79,994.24c-.27,0-.54,0-.81.06-3.5.51-6.64,2.99-6.7,6.76-.06,3.14,2.78,5,6.28,6.08,2.54-1.89,5.81-3.62,6.01-7.48.15-3.18-1.89-5.39-4.76-5.39l-.03-.03Z"/><path class="cls-2" d="M5476.9,749.23h-.21c-3.8.12-6.7,2.96-7.18,6.34-.42,2.93,2.33,5.86,5.41,6.01h.3c3.68,0,5.3-3.41,6.77-6.46-.21-3.35-1.71-5.89-5.06-5.89h-.03Z"/><path class="cls-2" d="M349.4,409.07c-2.54.86-4.67,2.78-4.94,6.13-.24,3.23.96,6.37,4.37,6.37h.21c3.47-.12,7-1.85,6.64-6.46-.24-3.32-2.15-5.51-6.28-6.04Z"/><path class="cls-2" d="M1064.68,506.66c-.21,0-.42,0-.66.03-4.28.39-6.01,3.89-5.5,7.48.38,2.76,2.57,3.95,5.08,3.95.63,0,1.29-.06,1.95-.21,3.2-.71,5.2-2.72,5.17-6.43-1.1-2.81-3.05-4.82-6.04-4.82Z"/><path class="cls-2" d="M33.03,897.09c-3.44,0-6.85,1.68-6.85,5.8s3.44,5.81,6.85,5.81h.27c3.14-.09,4.94-2.84,6.01-5.78-1.08-2.96-2.87-5.71-6.01-5.8h-.27v-.03Z"/><path class="cls-2" d="M191.02,604.68c-3.83,0-5.18,3.11-5.71,6.38-.51,2.99,1.85,4.51,4.46,4.9.51.09.99.12,1.44.12,3.2,0,5.42-1.91,6.7-6.16-.96-2.22-2.36-4.73-5.77-5.18-.39-.06-.75-.06-1.08-.06h-.03Z"/><path class="cls-2" d="M3807.95,359.79h-.21c-2.9.06-4.22,2.33-4.22,5.23,0,3.53,1.44,5.87,5.18,6.08h.71c3.03,0,5.3-1.08,5.33-5.24-.57-3.74-2.9-6.1-6.82-6.1l.03.03Z"/><path class="cls-2" d="M4999.35,359.64c-4.22,0-5.78,3.53-5.81,6.88,0,3.11,2.49,4.55,5.39,4.55.36,0,.72,0,1.08-.06,3.26-.39,5.44-2.22,5.83-5.72-.51-3.59-2.78-5.41-6.01-5.62h-.48v-.03Z"/><path class="cls-2" d="M5159.79,66.99c-.36,0-.78.03-1.2.12-2.99.6-5.83,2.15-5.83,5.8,0,3.29,1.76,6.11,5.11,6.38h.6c3.89,0,5.27-3.12,5.69-6.89-.54-2.75-1.35-5.44-4.37-5.44v.03Z"/><path class="cls-2" d="M1301.84,117.47c-3.65.15-5.83,1.82-5.12,5.71.6,3.32,2.82,5.45,6.2,5.6h.36c3.71,0,4.63-2.73,4.52-6.02-.15-3.8-2.43-5.29-5.96-5.29Z"/><path class="cls-2" d="M191.65,702.67c-4.58,0-6.1,3.29-6.43,6.79-.27,2.79,2.12,4.4,4.85,4.61h.81c3.56,0,6.28-1.68,6.49-5.65.21-3.57-2.54-5.12-5.54-5.75h-.21.03Z"/><path class="cls-2" d="M666.99,896.82c-3.08.96-5.83,2.96-5.89,5.99-.06,2.96,2.54,5.83,5.51,5.83h.15c3.62-.12,6.34-3.14,6.52-6.85.18-3.86-3.62-4.01-6.28-5v.03Z"/><path class="cls-2" d="M4444.09,66.96c-2.82,0-4.58,2.6-5.3,5.12-.84,3.08.78,6.37,3.77,7.03.42.09.81.12,1.17.12,3.17,0,4.88-3.14,6.55-5.75-.27-3.47-2.3-5.86-5.24-6.46-.32-.06-.65-.09-.95-.09v.03Z"/><path class="cls-2" d="M4127.84,847.15c-.3,0-.6,0-.9.09-2.6.42-6.49,1.05-6.22,5.06.21,3.05,2.01,5.78,5.48,5.78h.24c3.26-.12,5.62-1.86,6.4-6.26-.72-2.15-2.15-4.64-5.03-4.64l.03-.03Z"/><path class="cls-2" d="M349.1,312.04c-3.59,0-4.94,2.96-4.67,6.22.24,2.81,1.38,5.32,4.25,5.32.45,0,.93-.05,1.47-.17,2.96-.72,5.75-2.16,5.48-7.36-.9-1.95-3.32-3.95-6.37-4.01h-.15Z"/><path class="cls-2" d="M428.84,19.63c-1.71.8-4.67,1.7-4.91,5.23-.24,3.53,2.18,5.39,5.3,5.87.39.06.75.09,1.11.09,2.87,0,4.28-2.04,4.37-5.18.09-3.29-.81-5.86-5.86-6.04v.03Z"/><path class="cls-2" d="M112.48,799.07c-.36,0-.72.03-1.08.12-2.9.66-5.39,3.14-5.03,6.44.3,2.84,1.5,5.89,5.47,5.95,2.72-1.86,6.67-3.23,5.83-7.45-.51-2.51-2.39-5.06-5.21-5.06Z"/><path class="cls-2" d="M4602.01,555.58c-3.65.45-5.5,3.2-5.35,6.23.18,3.53,3.83,4.51,6.64,4.63h.3c3.26,0,5.42-2.36,4.94-5.83-.48-3.41-3.17-4.91-6.53-5.06v.03Z"/><path class="cls-2" d="M904.78,1092.17c-2.9.57-4.97,2.27-4.88,5.03.12,4.18,2.93,5.92,6.67,5.92h.48c2.69-.12,5.39-1.62,4.94-4.43-.6-3.68-3.47-5.98-7.24-6.52h.03Z"/><path class="cls-2" d="M1223.51,1092.32c-3.42.15-5.24,2.27-5.69,5.47-.51,3.69,1.59,5.42,5.06,5.48h.3c3.08,0,5.62-.99,5.56-4.79-.03-3.32-1.85-5.41-5.23-6.19v.03Z"/><path class="cls-2" d="M1541.93,1092.26c-.35,0-.74.03-1.13.12-3.35.72-6.76,3.05-6.29,7.27.33,2.84,3.3,3.44,6.65,3.68,2.18-.96,5.32-1.92,5.41-5.63.06-3.23-1.91-5.41-4.64-5.41v-.03Z"/><path class="cls-2" d="M3809.59,555.43c-.44,0-.89,0-1.34.06-2.7.24-4.7,1.68-4.49,4.73.21,2.87,1.29,5.33,4.16,5.33.39,0,.81-.03,1.23-.12,2.93-.6,5.59-2.04,5.65-5.78-.48-3.41-2.69-4.19-5.21-4.19v-.03Z"/><path class="cls-2" d="M4920.68,66.93c-.27,0-.54,0-.81.06-2.9.48-5.68,2.96-5.14,6.28.48,2.97,2.87,5.12,6.25,5.42,2.72-1.41,5.69-3.14,5.12-6.52-.45-2.7-2.55-5.27-5.42-5.27v.03Z"/><path class="cls-2" d="M5238.6,652.07c-.27,0-.54,0-.81.06-2.39.3-5.41,1.26-5.41,4.31,0,4.04,2.9,6.85,6.52,7.15h.27c2.39,0,3.62-2.9,3.86-5.68-.48-2.78-1.05-5.84-4.43-5.84Z"/><path class="cls-2" d="M1144.6,507.32c-.24,0-.48,0-.72.03-3.32.36-4.96,2.97-5.02,6.2-.06,2.81,1.58,4.4,4.93,4.4h.18c2.67-.39,5.24-1.89,5.39-5.33.12-3.17-1.74-5.33-4.73-5.33l-.03.03Z"/><path class="cls-2" d="M668.28,994.27c-3.17.36-4.91,2.48-5.36,5.71-.42,2.94,1.11,4.97,3.89,5.03h.15c3.74,0,6.61-1.94,6.4-6.13-.12-2.58-2.09-4.28-5.12-4.61h.03Z"/><path class="cls-2" d="M4365.45,457.72c-3.68,0-6.46,1.91-6.34,6.04.06,2.6,2.06,4.31,5.03,4.76,3.2-.3,4.96-2.49,5.47-5.69.45-2.9-.96-5.02-3.8-5.11h-.36Z"/><path class="cls-2" d="M4284.99,458.13h-.06c-3.29.72-5.35,2.79-4.73,6.14.42,2.21,2.13,4.13,4.64,4.13.21,0,.42,0,.63-.03,3.35-.42,5.3-2.76,4.7-6.08-.45-2.39-2.37-4.19-5.21-4.19l.03.03Z"/><path class="cls-2" d="M421.66,306.77c-6.13,8.32-6.13,13.67,0,22.2v-22.2Z"/><path class="cls-2" d="M1064.71,19.69c-3.35,0-4.82,1.67-4.7,4.51.15,3.27,1.86,5.78,5.24,6.14.21,0,.39.03.57.03,2.51,0,4.25-1.77,3.89-4.43-.39-2.93-1.62-5.8-4.82-6.22h-.18v-.03Z"/><path class="cls-2" d="M1222.88,20.16c-2.49,0-4.13,1.92-4.58,4.13-.66,3.35,1.35,5.45,4.67,6.17h.06c2.84,0,4.75-1.8,5.2-4.16.63-3.32-1.34-5.63-4.7-6.08-.23-.03-.44-.06-.68-.06h.03Z"/><path class="cls-2" d="M111.91,311.91c-3.05.9-5.68,3-5.59,5.99.09,2.93,2.63,5.59,5.8,5.68h.09c2.63,0,3.95-2.51,4.07-5.11.18-3.17-.75-5.81-4.4-6.56h.03Z"/><path class="cls-2" d="M747,118.15c-2.66,0-4.49,1.98-4.73,4.46-.36,3.38,1.65,5.6,5.06,5.72h.21c2.66,0,4.01-2.01,4.85-4.52-.15-3.29-1.77-5.54-5.21-5.66h-.18Z"/><path class="cls-2" d="M1144.63,118.12c-.45,0-.9.06-1.41.18-2.36.57-4.39,2.55-3.92,5.39.48,2.84,2.25,4.7,4.82,4.7.42,0,.87-.06,1.35-.15,2.39-.54,4.1-2.52,3.98-5.42-.75-2.75-2.31-4.7-4.82-4.7Z"/><path class="cls-2" d="M1301,312.04c-2.33,1.49-4.04,4.04-3.86,6.97.18,2.66,2.31,3.2,4.46,3.2.39,0,.78,0,1.17-.03,2.72-.18,4.79-1.41,4.73-4.46-.03-3.83-3.03-4.67-6.53-5.68h.03Z"/><path class="cls-2" d="M4682.32,262.1c-2.78,0-4.63,1.94-4.9,4.46-.36,3.38,1.64,5.59,5.05,5.71h.21c2.67,0,4.01-2.03,5.09-5.26-.93-2.07-1.82-4.91-5.45-4.91Z"/><path class="cls-2" d="M3887.84,847.18h-.06c-3.29.72-5.36,2.79-4.73,6.14.42,2.21,2.13,4.13,4.64,4.13.21,0,.42,0,.63-.03,3.35-.42,5.29-2.76,4.7-6.08-.45-2.39-2.37-4.19-5.21-4.19l.03.03Z"/><path class="cls-2" d="M1301.9,703.24c-3.17.45-5.27,2.36-4.88,5.8.27,2.46,2.07,4.43,4.7,4.43h.21c3.41-.12,5.42-2.33,5.06-5.71-.27-2.55-2.13-4.28-5.09-4.52Z"/><path class="cls-2" d="M1143.32,800.72h-.33c-2.1.09-3.8,1.05-4.1,3.41-.45,3.8,2.15,5.33,5.08,6.13.42.12.78.18,1.14.18,2.42,0,2.69-2.81,4.01-5.38-1.05-2.25-2.57-4.34-5.8-4.34Z"/><path class="cls-2" d="M1540.29,410.14c-.36,0-.72.03-1.11.12-2.69.6-3.59,3.41-3.23,6.02.33,2.48,1.92,3.77,4.07,3.77.42,0,.84-.06,1.26-.15,2.42-.51,4.72-1.59,4.42-4.85-1.22-2.42-2.69-4.94-5.41-4.94v.03Z"/><path class="cls-2" d="M348.68,1093.13c-1.2,0-3.41,2.33-3.56,3.71-.33,3.26,1.68,5.59,5.12,5.59h.03c2.69,0,4.28-1.82,4.82-4.64-.45-3.74-3.62-4.43-6.31-4.66h-.09Z"/><path class="cls-2" d="M1222.94,605.19h-.12c-2.58.6-4.49,2.04-4.73,4.79-.21,2.66,1.26,4.64,3.68,4.64.18,0,.36,0,.54-.03,2.81-.33,6.1-1.44,5.65-5.24-.29-2.48-2.27-4.13-5.05-4.13l.03-.03Z"/><path class="cls-2" d="M5156.97,848.11c-2.36,0-3.65,1.89-3.65,4.4,0,2.84,2.04,4.22,4.49,5.06h.39c2.69,0,4.64-1.65,5.09-3.95.72-3.83-2.63-4.97-5.45-5.45-.3-.06-.6-.09-.87-.09v.03Z"/><path class="cls-2" d="M1143.32,215.63h-.06c-2.94,0-4.49,1.56-4.4,5.72.63,2.3,3.23,4.07,5.98,4.07h.24c2.63-.09,3.86-3.23,3.53-5.72-.33-2.66-2.6-4.04-5.32-4.04l.03-.03Z"/><path class="cls-2" d="M4920.38,361.07h-.12c-3.14.33-5.38,2.85-5.53,5.96-.06,1.1,2.54,3.23,4.04,3.32h.45c3.2,0,4.66-2.54,5.11-6.55-1.1-.81-2.6-2.76-3.92-2.76l-.03.03Z"/><path class="cls-2" d="M985.15,702.82h-.63c-3.2.66-3.95,3.17-3.14,5.68.51,1.62,2.51,3.95,3.8,3.95,2.69-.06,4.22-2.45,4.13-5.32-.09-2.81-1.47-4.34-4.16-4.34v.03Z"/><path class="cls-2" d="M4522.99,1042.8c-2.15,0-3.65,1.53-3.8,3.68-.21,2.64.6,5.39,3.5,5.9.27.06.54.06.81.06,2.45,0,3.38-2.31,3.86-4.67.21-3.05-1.23-4.88-4.19-5h-.15l-.03.03Z"/><path class="cls-2" d="M827.4,606.03h-.3c-2.27.12-5.15.93-4.94,4.07.15,2.36,1.26,4.97,4.19,5.15h.3c2.6,0,3.95-1.98,4.67-4.64-.15-2.49-1.26-4.58-3.92-4.58Z"/><path class="cls-2" d="M5713.28,1043.25c-2.57,0-3.29,2.6-3.89,4.64-1.04,3.53,2.04,4.1,4.19,4.66.42.12.81.18,1.17.18,2.21,0,3.08-2.09,3.74-4.36-.33-2.64-1.86-4.58-4.43-5.06-.3-.06-.57-.09-.81-.09l.03.03Z"/><path class="cls-2" d="M826.23,20.25c-2.51,0-3.2,2.61-4.13,4.58-1.05,2.25-.06,4.19,2.03,4.61.45.09.9.15,1.32.15,2.51,0,4.46-1.59,5.89-4.13-.15-2.72-1.73-4.64-4.31-5.12-.27-.06-.54-.09-.78-.09h-.03Z"/><path class="cls-2" d="M985,117.76h-.15c-2.39.06-3.56,1.8-3.68,3.95-.18,2.73.96,5.42,3.77,5.66h.42c2.57,0,3.74-2.36,3.98-4.97.09-3.08-1.41-4.67-4.31-4.67l-.03.03Z"/><path class="cls-2" d="M4283.86,946.01c-2.04,0-3.27,1.65-3.48,3.83-.32,3.17,2.64,3.86,4.85,4.67.57.21,1.05.3,1.5.3,2,0,2.99-1.8,3.74-3.83-.15-3.23-2.81-3.86-5-4.64-.57-.21-1.11-.3-1.61-.3v-.03Z"/><path class="cls-2" d="M429.8,898.77h-.75c-2.27.95-5.03,1.79-3.95,5.11.75,2.28,2.6,3.14,4.73,3.14.45,0,.9-.03,1.38-.11,2.36-.36,3.35-2.19,3.17-4.34-.24-2.88-2.12-3.83-4.64-3.83l.06.03Z"/><path class="cls-2" d="M1064.65,313.65c-.27,0-.57,0-.87.06-2.9.36-4.34,2.37-3.53,5.36.54,1.97,2.01,2.87,3.86,2.87.24,0,.48,0,.75-.06,2.69-.33,4.64-1.56,4.82-4.64-.9-2.48-2.79-3.62-5.03-3.62v.03Z"/><path class="cls-2" d="M5077.92,1043.34c-.93,1.14-2.78,2.39-3.17,4.04-.75,3.17,2.06,4.25,4.37,4.85.36.09.66.15.96.15,1.85,0,2.27-1.89,2.33-3.65.06-2.61-.48-4.97-4.49-5.39Z"/><path class="cls-2" d="M4365.57,264.64c-.27,0-.51,0-.78.03-2.66.24-4.96,1.5-4.75,4.55.15,2.24,2.09,3.2,4.51,3.32,2.52-.51,4.4-2.09,4.46-4.91.06-2.33-1.61-2.99-3.41-2.99h-.03Z"/><path class="cls-2" d="M112.5,606.18c-2.96,0-4.04,2.09-4.46,4.64-.33,2.09.06,4.27,2.63,4.45h.36c2.63,0,4.19-1.88,4.64-4.48.36-2.25-.87-3.77-2.96-4.61h-.24.03Z"/><path class="cls-2" d="M825.81,703.06c-2.27,0-4.16,1.59-3.86,3.98.27,2.06,2.57,3.86,3.65,5.32.24,0,.48.03.69.03,2.93,0,3.29-2.09,3.89-3.68,1.08-2.99-.66-4.96-3.23-5.53-.36-.09-.72-.12-1.08-.12h-.06Z"/><path class="cls-2" d="M4920.8,946.22c-2.96,0-4.04,2.09-4.46,4.64-.33,2.09.06,4.28,2.64,4.45h.36c2.63,0,4.18-1.88,4.63-4.48.36-2.25-.86-3.77-2.96-4.61h-.24.03Z"/><path class="cls-2" d="M5078.37,653.66h-.51c-2.33.15-3.65,1.74-3.02,4.01.66,2.33,2.39,3.8,4.7,3.8.3,0,.6,0,.93-.09,2.06-.33,3.32-1.91,3.32-4.22-1.02-2.51-3-3.53-5.39-3.53l-.03.03Z"/><path class="cls-2" d="M4523.38,68.79c-2.04,0-3.83.86-4.01,3.35-.21,2.96,1.23,4.54,4.01,4.54h.33c2.39-.11,3.23-1.91,3.53-4.03-.33-2.22-1.5-3.8-3.74-3.83h-.12v-.03Z"/><path class="cls-2" d="M271.15,1288.47c-.39,0-.81.09-1.23.27-1.5.66-3.14,2.64-3.41,4.22-.42,2.34,1.41,2.93,3.26,2.93.24,0,.48,0,.72-.03,2.42-.18,3.11-2.06,3.29-4.18-.12-1.98-1.2-3.24-2.63-3.24v.03Z"/><path class="cls-2" d="M4761.65,1043.37c-2.16,0-3.08,1.8-3.23,3.83-.15,1.89-.69,4.61,1.79,4.88h.48c2.45,0,3.8-2.37,4.79-4.61.06-2.39-1.23-3.92-3.41-4.13h-.39l-.03.03Z"/><path class="cls-2" d="M5635.04,166.98c-.3,0-.6.03-.9.12-1.59.48-3.95,2.31-3.95,3.56,0,2.43,1.76,3.89,4.04,3.89.36,0,.72-.03,1.11-.12,1.97-.39,3.35-1.91,3.23-4.25-.63-1.82-1.92-3.2-3.53-3.2Z"/><path class="cls-2" d="M4047.38,361.07c-2.78,0-4.28,2.4-3.74,5.21.36,1.92,1.77,3.26,3.89,3.26h.3c2.13-.75,3.62-2.42,3.02-4.49-.48-1.61-2.3-3.98-3.5-3.98h.03Z"/><path class="cls-2" d="M33.27,996.93c-.24,0-.51,0-.75.03-2.42.18-3.26,2.07-3.23,4.19,0,2.19,1.17,3.08,3.56,3.08.39,0,.81,0,1.26-.06.66-1.1,2.21-2.6,2.42-4.27.33-2.37-1.44-2.97-3.26-2.97Z"/><path class="cls-2" d="M4841.48,264.58h-.03c-2.6,0-5.3,1.05-5.09,3.98.09,1.29,2.76,2.37,3.71,3.14,3.18-.09,4.73-1.31,5-3.53.3-2.42-1.41-3.59-3.59-3.59Z"/><path class="cls-2" d="M33.21,801.44c-3.62.21-3.98,2.12-3.83,4.19.18,2.42,1.97,3.26,4.07,3.29,2.45,0,3.68-1.74,2.93-3.83-.57-1.59-2.33-2.73-3.17-3.65Z"/><path class="cls-2" d="M112.15,1191.26c-2.6,0-4.13,2.04-3.59,4.64.3,1.53,2.33,3.65,3.68,3.74h.06c1.29,0,2.72-2.12,3.56-2.87,0-3.29-1.05-5.24-3.17-5.48-.21,0-.39-.03-.57-.03h.03Z"/><path class="cls-2" d="M4840.88,751.83c-2.39.36-3.26,2.06-3.26,4.22,0,2,1.08,3.23,2.57,3.23.39,0,.81-.09,1.23-.27,1.5-.63,3.14-2.57,3.44-4.19.51-2.66-1.91-2.9-3.92-2.99h-.06Z"/><path class="cls-2" d="M985.06,1186.78c-2.01,0-3.86,1.22-5.86,4.01,2.04.98,3.92,1.61,5.9,1.61s4.19-.66,6.76-2.24c-2.6-2.13-4.79-3.35-6.82-3.35l.03-.03Z"/><path class="cls-2" d="M5159.19,946.16c-.39,0-.81.06-1.32.24-1.7.54-4.07,1.2-3.5,3.74.42,1.97,1.05,4.31,3.35,4.31.36,0,.78-.06,1.23-.18,1.77-.48,3.8-1.17,3.5-3.95-.75-1.65-1.02-4.16-3.23-4.16h-.03Z"/><path class="cls-2" d="M4206.24,556.42c-.24,0-.48,0-.75.09-1.65.39-2.96,2.22-4.07,3.11.12,3.09,1.47,4.28,3.5,4.28h.24c2.18-.09,3.65-1.58,3.74-3.8.09-1.97-.93-3.68-2.72-3.68h.06Z"/><path class="cls-2" d="M4840.46,556.3c-1.19,0-2.12.87-2.69,2.31-.81,2.15.15,3.97,2.12,4.9.63.3,1.23.45,1.8.45,1.26,0,2.36-.72,3.2-2.06.69-2.4-.81-3.8-2.45-4.91-.69-.48-1.35-.69-1.95-.69h-.03Z"/><path class="cls-2" d="M4682.36,556.18c-.48,0-.99.12-1.56.42-1.17.57-2.81,2.75-2.6,3.05.98,1.47,2.42,3.32,3.92,3.53.18,0,.35.03.5.03,2.1,0,2.34-2.21,2.34-4.13-.36-1.76-1.26-2.9-2.6-2.9Z"/><path class="cls-2" d="M112.48,1094.8h-.36c-1.17.09-2.87,1.17-3.26,2.19-.84,2.15.51,3.98,2.6,4.48.3.09.6.12.87.12,1.7,0,2.75-1.4,3.29-3.17.09-2.33-1.17-3.62-3.14-3.62Z"/><path class="cls-2" d="M270.67,899.4h-.03c-2.03.08-3.74,1.61-3.5,3.85.24,2.25,2.06,3.15,4.25,3.18,2.48-.66,3.02-2.61,2.27-4.58-.39-1.08-1.95-2.45-2.96-2.45h-.03Z"/><path class="cls-2" d="M826.65,412.3c-.99,0-2.54,1.37-2.93,2.45-.72,1.98-.21,4.13,2.3,4.49.24.03.45.06.66.06,1.79,0,3.08-1.2,3.65-3.14-.21-2.28-1.62-3.77-3.62-3.86h-.06Z"/><path class="cls-2" d="M3888.83,752.22c-2.43.21-3.5,1.82-3.17,3.95.18,1.16,1.37,2.81,2.39,3.05.3.06.6.09.9.09,1.7,0,3.14-1.17,3.35-3.08.24-2.22-1.47-3.41-3.44-4.04l-.03.03Z"/><path class="cls-2" d="M33.15,509.78h-.12c-2.99.18-4.28,2.3-3.59,5.11.12.51,1.71,1.02,2.87,1.02.24,0,.45,0,.63-.06,1.83-.45,3.77-1.38,3.38-4.52-.9-.45-2.06-1.52-3.2-1.52l.03-.03Z"/><path class="cls-2" d="M985.63,509.78c-.24,0-.45,0-.72.06-1.14.18-2.78,1.4-3.02,2.42-.48,2.09.75,4.04,2.93,4.28h.42c1.95,0,2.99-1.65,3.56-3.53-.18-2.16-1.47-3.26-3.23-3.26l.06.03Z"/><path class="cls-2" d="M270.67,216.29h-.03c-2.03.09-3.74,1.62-3.5,3.86.24,2.25,2.06,3.14,4.25,3.17,2.48-.66,3.02-2.6,2.27-4.57-.39-1.08-1.95-2.46-2.96-2.46h-.03Z"/><path class="cls-2" d="M1461.62,996.81c-.36,0-.72.06-1.07.12-1.11.24-2.91,2.25-2.7,2.64.78,1.58,2.07,3.77,3.41,3.98h.12c1.17,0,2.61-2.07,3.5-2.85-.32-2.96-1.67-3.89-3.23-3.89h-.03Z"/><path class="cls-2" d="M666.75,606.18c-1.89,0-3.2,1.61-3.35,3.5-.18,2.39,1.67,3.23,3.86,3.32,2.42-.21,3.65-1.65,2.93-3.89-.36-1.2-1.76-2.69-2.9-2.87-.18,0-.36-.03-.54-.03v-.03Z"/><path class="cls-2" d="M1302.89,899.49c-1.08,0-2.69,1.01-3.14,2-.93,1.94-.33,4.04,1.88,4.76.42.12.78.21,1.14.21,1.58,0,2.66-1.23,3.38-2.88.18-2.33-1.05-3.92-3.14-4.09h-.12Z"/><path class="cls-2" d="M4920.02,849.76c-1.79,0-3.26,1.11-3.11,3.23.15,2.06,1.65,3.44,3.89,3.62,2.16-.63,3.44-2.24,2.96-4.34-.24-1.05-1.85-2.27-2.99-2.45-.24-.03-.48-.06-.72-.06h-.03Z"/><path class="cls-2" d="M1462.49,606.45c-2.39,1.79-3.41,2.57-4.43,3.38.75.99,1.35,2.57,2.31,2.87.48.15.95.21,1.43.21,1.38,0,2.55-.72,2.49-2.72-.06-1.23-1.11-2.43-1.77-3.74h-.03Z"/><path class="cls-2" d="M4205.4,167.4s-.21,0-.3.03c-1.91.42-3.65,1.86-2.66,4.19.42,1.02,2,1.53,2.84,2.15,2.36-1.13,3.8-2.6,3.05-4.75-.27-.78-1.88-1.62-2.9-1.62h-.03Z"/><path class="cls-2" d="M1064.35,118.78c-.87.63-2.42,1.17-2.84,2.19-.96,2.33.81,3.74,2.72,4.16h.3c1.02,0,2.63-.87,2.9-1.65.72-2.15-.74-3.59-3.08-4.73v.03Z"/><path class="cls-2" d="M348.56,1192.79c-1.44,0-3.08.48-2.15,2.39.78,1.65,2.42,3.29,4.07,4.01.33.15.6.21.84.21,1.17,0,1.47-1.49,1.47-2.84-.33-2.27-1.65-3.65-3.89-3.77h-.36.03Z"/><path class="cls-2" d="M1223.12,899.87h-.18c-.99.33-2.13,1.92-2.19,3-.09,1.7.78,3.14,2.34,3.14.36,0,.71-.06,1.13-.24.9-.36,1.23-2.28,2.04-3.92-1.2-.78-2.37-2.04-3.11-2.04l-.03.06Z"/><path class="cls-2" d="M1540.89,314.16h-.15c-1.95.27-3.77,1.7-3.32,3.95.21,1.02,1.88,2.51,2.84,2.51h.09c1.82-.21,3.53-1.43,6.64-2.84-3.92-2.33-5.18-3.59-6.13-3.59l.03-.03Z"/><path class="cls-2" d="M4364.91,850.3c-.92,0-2.84,1.94-2.75,2.15.81,1.59,1.86,3.17,3.23,4.25h.09c.48,0,2.07-1.41,2.87-1.95.03-2.84-1.43-4.21-3.38-4.48h-.06v.03Z"/><path class="cls-2" d="M984.28,997.44c-.36,0-2.6,1.89-2.45,2.4.48,1.61,1.74,2.99,3.05,5.08,1.47-1.79,3.23-3.29,2.99-3.74-.78-1.49-2.16-2.75-3.56-3.74h-.03Z"/><path class="cls-2" d="M270.1,22.53c-.72.42-2.84,1.35-2.78,1.65.51,1.76,1.53,3.41,2.36,5.08,1.11-.72,2.66-1.16,3.2-2.18,1.17-2.16.15-3.74-2.81-4.52l.03-.03Z"/><path class="cls-2" d="M1620.63,802.39c-.36,0-.78.03-1.26.12-.57.63-1.76,1.92-2.93,3.2,1.02.93,1.94,2.46,3.11,2.67.24.06.48.06.69.06,1.85,0,2.75-1.59,2.78-3.56,0-1.32-.36-2.52-2.39-2.52v.03Z"/><path class="cls-2" d="M509.18,215.81c-1.5,2.01-2.87,3.29-3.47,4.88-.21.54,1.95,2.63,2.27,2.63,1.5-.89,3.02-2.06,3.95-3.5.27-.39-1.41-2.06-2.81-3.98l.06-.03Z"/><path class="cls-2" d="M3889.19,459.15h-.24c-2.01.42-3.35,2.21-2.67,4.37.3.96,1.92,1.47,2.79,2.06,2.18-1.19,4.13-2.24,3.11-4.57-.39-.87-1.98-1.86-2.96-1.86h-.03Z"/><path class="cls-2" d="M1063.54,216.26c-1.01,1.47-2.42,2.63-2.33,3.65.12,1.08,1.64,2.72,2.63,2.78h.24c1.95,0,3.32-1.49,2.63-3.65-.32-1.04-1.88-1.67-3.2-2.78h.03Z"/><path class="cls-2" d="M4998.72,947.69c-1.2,0-2.19.77-1.65,2.3.39,1.11,1.83,1.83,2.52,2.48h.27c2.06,0,3.05-1.01,2.54-2.48-.36-.99-1.86-1.91-2.99-2.21-.24-.06-.45-.09-.69-.09Z"/><path class="cls-2" d="M5317.69,654.95c-1.02,0-2.73,1.43-2.91,2.45-.33,1.98.87,3.32,2.76,3.32.18,0,.38,0,.56-.03,1.32-.18,2.52-1.13,4.37-2-2.72-2.22-3.74-3.71-4.78-3.71v-.03Z"/><path class="cls-2" d="M4602.94,948.34h-.18c-1.13.27-2,1.65-2.96,2.58.9.72,1.83,2,2.66,2h.06c1.08-.06,2.1-1.25,3.83-2.45-1.52-.96-2.63-2.13-3.41-2.13Z"/><path class="cls-2" d="M351.37,217.31c-1.08.93-2.57,1.64-3.08,2.81-.57,1.32.21,2.84,1.62,2.84.15,0,.3,0,.48-.06,1.05-.24,1.8-1.85,2.63-2.78-.72-1.2-1.17-2-1.65-2.81Z"/><path class="cls-2" d="M1223.33,411.34c-1.35,2.09-2.46,3.14-2.67,4.34-.18,1.19.15,2.57,1.41,2.57.3,0,.66-.09,1.08-.27.8-.33,1.76-1.43,1.76-2.21,0-1.14-.78-2.28-1.61-4.46l.03.03Z"/><path class="cls-2" d="M5635.34,70.52s-.21,0-.33.03c-1.08.3-2.31,1.68-2.58,2.78-.18.69,1.35,1.77,2.13,2.7.93-.87,1.85-1.71,4.34-4.01-1.47-.6-2.67-1.5-3.56-1.5Z"/><path class="cls-2" d="M5475.52,1045.43c-1.19.72-1.97,1.2-2.78,1.68.9,1.08,1.62,2.63,2.78,3.11.3.12.6.18.9.18,1.14,0,2.15-.93,1.86-2.3-.24-1.08-1.83-1.83-2.76-2.67Z"/><path class="cls-2" d="M509,900.05c-1.71,0-2.78,1.41-2.57,3.29.15,1.26,1.29,2.4,2.27,4.04,1.83-2.21,3.32-3.2,3.35-4.28.03-1.01-1.29-2.75-2.27-2.99-.27-.06-.54-.09-.78-.09v.03Z"/><path class="cls-2" d="M4601.63,1045.76c-1.29,0-2.46.69-1.68,2.58.33.8,1.44,1.79,2.18,1.79,1.14,0,2.25-.78,4.4-1.64-2.09-1.35-3.11-2.49-4.31-2.7-.21-.03-.41-.06-.62-.06l.03.03Z"/><path class="cls-2" d="M192.22,1193.6c-1.23,0-2.45,1.13-3.71,1.73.54,1.11,1.02,2.55,1.29,2.55,1.38-.18,3.2-.33,3.95-1.26,1.05-1.29.18-3.05-1.56-3.05l.03.03Z"/><path class="cls-2" d="M906.03,705.81h-.06c-1.08.06-2.09,1.26-3.83,2.46,1.53.95,2.63,2.12,3.41,2.12h.18c1.14-.27,2.01-1.64,2.96-2.57-.9-.72-1.83-2.01-2.66-2.01Z"/><path class="cls-2" d="M906.09,22.74s-.21,0-.3.03c-1.05.27-1.8,1.61-2.66,2.51.93.63,1.95,1.83,2.78,1.83h.15c1.11-.18,2.01-1.53,3.59-2.91-1.56-.62-2.69-1.46-3.53-1.46h-.03Z"/><path class="cls-2" d="M4444.12,362.75s-.21,0-.3.03c-1.05.27-1.8,1.65-2.67,2.51.93.63,1.98,1.83,2.79,1.83h.15c1.1-.21,2-1.53,3.59-2.9-1.56-.63-2.7-1.47-3.56-1.47Z"/><path class="cls-2" d="M1223,997.8c-1.35,0-1.83,1.5-1.56,3.5.84.57,2.01,1.35,3.17,2.16.42-.87,1.41-1.89,1.2-2.52-.42-1.19-1.38-2.87-2.36-3.08-.15,0-.3-.03-.42-.03l-.03-.03Z"/></g></g></g></svg>