<?xml version="1.0" encoding="UTF-8"?><svg
  id="Layer_1"
  xmlns="http://www.w3.org/2000/svg"
  viewBox="0 0 1182 1182"
>
  <defs>
    <style>
      .cls-1 {
        fill: #fff;
        fill-rule: evenodd;
      }
    </style>
  </defs>
  <path
    class="cls-1"
    d="M984.8,359.75c115.24,114.88,115.24,304.16,0,420.03l-129.69,129.36h-192.61l225.54-224.98c62.92-62.75,62.92-166.08,0-228.8-62.91-62.78-165.56-62.78-228.44,0l-138.11,133.69-49.88,50.71c-26.16,27.05-67.57,27.05-93.7,0-27.12-26.06-28.8-70.34-2.67-96.44l34.57-36.69,152.95-146.88c116.17-115.87,305.91-115.87,422.04,0ZM519.51,272.85l-225.54,224.98c-62.92,62.78-62.92,166.08,0,228.84,62.95,62.75,165.56,62.75,228.44,0l138.11-133.68,49.92-50.74c26.13-27.06,67.54-27.06,93.67,0,27.12,26.1,28.8,70.37,2.67,96.43l-34.58,36.69-152.95,146.88c-116.17,115.87-305.87,115.87-422.04,0-115.24-114.88-115.24-304.16,0-420l129.69-129.4h192.61Z"
  />
</svg>
