<svg
  id="Layer_1"
  xmlns="http://www.w3.org/2000/svg"
  viewBox="0 0 3024.9 975.45"
>
  <path
    fill="#F5F5F5"
    d="M203.97,215.96h101.91v216.33h13.91l175.25-216.33h130.48l-225.44,268.46,233.17,276.24h-134.34l-179.12-221h-13.91v221h-101.91V215.96Z"
  />
  <path
    fill="#F5F5F5"
    d="M651.73,553.68v-130.73c0-140.07,86.47-217.89,222.35-217.89s222.36,77.82,222.36,217.89v130.73c0,140.07-86.48,217.89-222.36,217.89s-222.35-77.82-222.35-217.89ZM994.53,556.79v-136.95c0-74.7-44.78-122.95-120.45-122.95s-120.44,48.25-120.44,122.95v136.95c0,74.7,44.77,122.95,120.44,122.95s120.45-48.25,120.45-122.95Z"
  />
  <path
    fill="#F5F5F5"
    d="M1182.62,218.2h101.91v544.71h-101.91V218.2Z"
  />
  <path
    fill="#F5F5F5"
    d="M1389.75,215.96h193.8l107.32,474.67h13.89V215.96h100.37v544.71h-193.8l-107.32-474.67h-13.89v474.67h-100.37V215.96Z"
  />
  <path
    fill="#F5F5F5"
    d="M1894.65,553.68v-130.73c0-140.07,86.47-217.89,222.35-217.89s222.36,77.82,222.36,217.89v130.73c0,140.07-86.48,217.89-222.36,217.89s-222.35-77.82-222.35-217.89ZM2237.45,556.79v-136.95c0-74.7-44.78-122.95-120.45-122.95s-120.44,48.25-120.44,122.95v136.95c0,74.7,44.77,122.95,120.44,122.95s120.45-48.25,120.45-122.95Z"
  />
  <path
    fill="#F5F5F5"
    d="M2404.17,583.25v-21.79h100.36v21.79c0,65.37,42.47,98.05,111.96,98.05s104.23-31.13,104.23-74.7-39.37-60.69-108.86-76.26l-17.76-3.89c-111.96-24.9-177.58-63.03-177.58-162.63s74.89-158.75,190.7-158.75,199.96,59.14,199.96,177.42v23.34h-100.36v-23.34c0-62.25-37.83-87.15-99.6-87.15s-90.33,24.9-90.33,65.36,30.11,59.92,94.97,73.93l17.75,3.89c115.04,24.9,191.48,65.36,191.48,164.97s-79.53,168.09-204.6,168.09-212.32-70.04-212.32-188.32Z"
  />
</svg>