<?xml version="1.0" encoding="UTF-8"?><svg id="Layer_1" xmlns="http://www.w3.org/2000/svg" viewBox="0 0 3896.94 1184.94"><defs><style>.cls-1,.cls-2{fill:none;}.cls-2{stroke:#5d00b3;stroke-linecap:round;stroke-linejoin:round;stroke-width:60px;}.cls-3{fill:#121212;}</style></defs><path class="cls-3" d="M1179.02,350.05h101.87v214.55h13.9l175.18-214.55h130.43l-225.35,266.26,233.07,273.97h-134.29l-179.04-219.18h-13.9v219.18h-101.87V350.05Z"/><path class="cls-3" d="M1626.59,684.99v-129.65c0-138.92,86.43-216.09,222.26-216.09s222.27,77.18,222.27,216.09v129.65c0,138.92-86.44,216.09-222.27,216.09s-222.26-77.18-222.26-216.09ZM1969.25,688.08v-135.83c0-74.09-44.77-121.94-120.4-121.94s-120.39,47.85-120.39,121.94v135.83c0,74.09,44.76,121.94,120.39,121.94s120.4-47.85,120.4-121.94Z"/><path class="cls-3" d="M2160.59,350.05h101.87v540.23h-101.87V350.05Z"/><path class="cls-3" d="M2364.32,350.05h193.72l107.27,470.77h13.89v-470.77h100.33v540.23h-193.72l-107.27-470.77h-13.89v470.77h-100.33V350.05Z"/><path class="cls-3" d="M2869.01,684.99v-129.65c0-138.92,86.43-216.09,222.26-216.09s222.27,77.18,222.27,216.09v129.65c0,138.92-86.44,216.09-222.27,216.09s-222.26-77.18-222.26-216.09ZM3211.67,688.08v-135.83c0-74.09-44.77-121.94-120.4-121.94s-120.39,47.85-120.39,121.94v135.83c0,74.09,44.76,121.94,120.39,121.94s120.4-47.85,120.4-121.94Z"/><path class="cls-3" d="M3378.32,714.32v-21.61h100.32v21.61c0,64.83,42.45,97.24,111.91,97.24s104.19-30.87,104.19-74.09-39.35-60.19-108.81-75.63l-17.75-3.86c-111.91-24.7-177.5-62.51-177.5-161.3s74.86-157.44,190.62-157.44,199.88,58.66,199.88,175.96v23.15h-100.32v-23.15c0-61.74-37.82-86.43-99.56-86.43s-90.3,24.7-90.3,64.83,30.1,59.42,94.93,73.32l17.74,3.86c115,24.7,191.4,64.83,191.4,163.61s-79.49,166.7-204.52,166.7-212.23-69.46-212.23-186.77Z"/><path class="cls-1" d="M3530.87,1164.68v135.83c0,74.09,44.76,121.94,120.39,121.94,0,0,0,0,0,0v-379.7s0,0,0,0c-75.63,0-120.39,47.85-120.39,121.94Z"/><path class="cls-2" d="M529.31,134.17l396.89,229.15v458.3l-396.89,229.15-396.9-229.15v-458.3l396.9-229.15ZM362.44,496.12v192.69l166.88,96.35,166.88-96.35v-192.69l-166.88-96.35-166.88,96.35ZM529.31,592.47v458.3M133.51,363.95l395.8,228.52,396.89-229.15"/></svg>