<?xml version="1.0" encoding="UTF-8"?><svg
  id="Layer_1"
  xmlns="http://www.w3.org/2000/svg"
  viewBox="0 0 3884.01 1184.94"
>
  <defs>
    <style>
      .koinos-logomark {
        fill: none;
      }
      .koinos-logomark {
        stroke: #6f00f6;
        stroke-linecap: round;
        stroke-linejoin: round;
        stroke-width: 48px;
      }
      .koinos-logotype {
        fill: #090221;
      }
    </style>
  </defs>
  <path
    class="koinos-logomark"
    d="M531.86,124.13l405.42,234.07v468.15l-405.42,234.07-405.43-234.07v-468.15l405.43-234.07ZM361.4,493.86v196.83l170.46,98.42,170.46-98.42v-196.83l-170.46-98.42-170.46,98.42ZM532.42,592.28v468.15M127.55,358.85l404.31,233.43,405.42-234.07"
  />
  <path
    class="koinos-logotype"
    d="M1165,317.8h101.91v216.33h13.91l175.25-216.33h130.48l-225.44,268.46,233.17,276.24h-134.34l-179.12-221h-13.91v221h-101.91V317.8Z"
  />
  <path
    class="koinos-logotype"
    d="M1612.75,655.52v-130.73c0-140.07,86.47-217.89,222.35-217.89s222.36,77.82,222.36,217.89v130.73c0,140.07-86.48,217.89-222.36,217.89s-222.35-77.82-222.35-217.89ZM1955.55,658.63v-136.95c0-74.7-44.78-122.95-120.45-122.95s-120.44,48.25-120.44,122.95v136.95c0,74.7,44.77,122.95,120.44,122.95s120.45-48.25,120.45-122.95Z"
  />
  <path
    class="koinos-logotype"
    d="M2143.64,320.04h101.91v544.71h-101.91V320.04Z"
  />
  <path
    class="koinos-logotype"
    d="M2350.78,317.8h193.8l107.32,474.67h13.89v-474.67h100.37v544.71h-193.8l-107.32-474.67h-13.89v474.67h-100.37V317.8Z"
  />
  <path
    class="koinos-logotype"
    d="M2855.67,655.52v-130.73c0-140.07,86.47-217.89,222.35-217.89s222.36,77.82,222.36,217.89v130.73c0,140.07-86.48,217.89-222.36,217.89s-222.35-77.82-222.35-217.89ZM3198.47,658.63v-136.95c0-74.7-44.78-122.95-120.45-122.95s-120.44,48.25-120.44,122.95v136.95c0,74.7,44.77,122.95,120.44,122.95s120.45-48.25,120.45-122.95Z"
  />
  <path
    class="koinos-logotype"
    d="M3365.19,685.09v-21.79h100.36v21.79c0,65.37,42.47,98.05,111.96,98.05s104.23-31.13,104.23-74.7-39.37-60.69-108.86-76.26l-17.76-3.89c-111.96-24.9-177.58-63.03-177.58-162.63s74.89-158.75,190.7-158.75,199.96,59.14,199.96,177.42v23.34h-100.36v-23.34c0-62.25-37.83-87.15-99.6-87.15s-90.33,24.9-90.33,65.36,30.11,59.92,94.97,73.93l17.75,3.89c115.04,24.9,191.48,65.36,191.48,164.97s-79.53,168.09-204.6,168.09-212.32-70.04-212.32-188.32Z"
  />
</svg>
