<svg
  id="Layer_1"
  xmlns="http://www.w3.org/2000/svg"
  viewBox="0 0 3024.9 975.45"
  class="koinos-mark"
>
  <path
    class="cls-1"
    d="M1005.85,335.51l-401-231.52c-3.81-2.2-8.83-3.3-13.86-3.3s-10.05,1.1-13.86,3.3l-401,231.52c-7.62,4.4-13.86,15.2-13.86,24v463.03c0,8.8,6.24,19.6,13.86,24l401,231.52c3.81,2.2,8.83,3.3,13.86,3.3s10.05-1.1,13.86-3.3l401-231.52c7.62-4.4,13.86-15.2,13.86-24v-463.03c0-8.8-6.24-19.6-13.86-24ZM591,151.42l357.1,206.17-186.54,107.7-156.16-90.16c-3.81-2.2-8.83-3.3-13.86-3.3s-10.05,1.1-13.86,3.3l-156.84,90.55-187.44-107.81,357.59-206.45ZM445.34,535.13l119.83,68.92c.91.52,1.85.94,2.81,1.26-.1.73-.18,1.47-.18,2.23v138.96l-108.61-62.7c-7.62-4.4-13.86-15.2-13.86-24v-124.68ZM591.21,590.87l.4.69h-.79l.4-.69ZM593.28,562.45c-.75.43-1.44.93-2.09,1.46-.65-.53-1.34-1.03-2.09-1.46l-120.15-69.11,122.61-70.79,122.01,70.44-120.29,69.45ZM615.55,604.87c.59-.25,1.16-.52,1.73-.85l120.49-69.57v125.36c0,8.8-6.24,19.6-13.86,24l-108.12,62.42v-138.68c0-.92-.1-1.81-.25-2.69ZM210.29,794.82v-394.88l187.05,107.58v180c0,8.8,6.24,19.6,13.86,24l156.61,90.42v215.29l-343.65-198.41c-7.62-4.4-13.86-15.2-13.86-24ZM957.85,818.82l-342.05,197.48v-214.65l156.12-90.13c7.62-4.4,13.86-15.2,13.86-24v-180.79l185.94-107.35v395.44c0,8.8-6.24,19.6-13.86,24Z"
  />
</svg>
